<svg xmlns="http://www.w3.org/2000/svg" width="390" height="401" fill="none"><ellipse cx="193.322" cy="85.5" fill="#FB923C" rx="215.678" ry="315.5"/><path fill="#64748B" d="M357.273 357.479H28.455a.416.416 0 0 1-.312-.147.537.537 0 0 1-.129-.353c0-.133.047-.26.13-.354a.415.415 0 0 1 .31-.146h328.819c.117 0 .229.052.311.146a.535.535 0 0 1 .129.354.534.534 0 0 1-.129.353.413.413 0 0 1-.311.147Z"/><g clip-path="url(#a)"><path fill="#334155" d="M149.351 356.252c-2.047 10.769-13.716-2.467-13.716-2.467l-13.921-1.795s-8.803.224-14.535 5.16c-5.732 4.936-9.622-1.571-9.622-1.571-6.458 2.36-14.37 2.35-21.223 1.594-9.874-1.088-17.788-9.441-19.145-20.214-7.656-60.774 34.431-90.64 34.431-90.64l12.283-36.345s-3.889-10.545-5.118-19.968c-1.228-9.423 7.78-18.397 18.835-27.371 4.836-3.926 10.378-3.644 15.082-2.084 5.278 1.75 9.881 5.348 13.283 10.103 2.818 3.94 7.651 9.519 12.964 10.486 1.838.332 3.652 1.131 5.347 2.584 1.753 1.504 2.526 4.012 2.551 7.13.131 13.623-10.134 30.023-19.133 32.581-11.055 3.141-5.118 32.98-5.118 32.98 18.015 27.82 5.322 58.781 5.322 58.781l3.276 25.127s.205 5.161-1.843 15.929Z"/><path fill="#2F2E41" d="M106.853 376.478c.511 0 1.034-.011 1.57-.034 4.623-.199 8.027-2.065 10.118-5.546 5.979-9.953-.671-29.572-1.138-30.915l-6.544-45.722c-.035-.245-.243-.41-.468-.374-.223.039-.376.268-.341.513l6.551 45.769a.574.574 0 0 0 .022.091c.072.203 7.064 20.441 1.233 30.146-1.937 3.225-5.122 4.955-9.465 5.141-6.818.292-11.404-1.303-13.633-4.742-2.917-4.5-.732-10.736-.71-10.799a.492.492 0 0 0 .027-.2l-4.503-61.473c-.018-.247-.212-.427-.442-.411-.225.02-.393.236-.375.483l4.497 61.372c-.298.88-2.163 6.912.835 11.543 2.218 3.426 6.509 5.158 12.766 5.158Z"/><path fill="#334155" d="M126.423 310.933s-1.229 56.986 24.566 55.64c25.795-1.346 2.457-19.295 2.457-19.295l-2.252-6.955"/><path fill="#2F2E41" d="M150.104 367.045c.299 0 .6-.008.905-.024 7.365-.384 11.526-2.193 12.368-5.375 1.517-5.734-8.369-13.695-9.589-14.652l-2.208-6.82c-.076-.234-.31-.356-.523-.273-.213.082-.325.339-.249.572l2.252 6.955a.445.445 0 0 0 .151.218c.108.083 10.8 8.384 9.38 13.75-.734 2.774-4.644 4.364-11.621 4.729-4.647.245-8.72-1.468-12.1-5.084-12.673-13.558-12.046-49.734-12.038-50.097.005-.248-.173-.453-.4-.46-.214.001-.413.191-.419.439-.032 1.501-.644 36.927 12.285 50.76 3.328 3.56 7.296 5.362 11.806 5.362Z"/><path fill="#64748B" d="M166.847 190.854c-2.94.386-7.542.368-11.354-2.418-4.082-2.984.156-5.766 3.456-7.296 1.838.332 3.652 1.131 5.347 2.584 1.753 1.504 2.526 4.012 2.551 7.13ZM119.34 182.786s7.145-20.109-3.088-20.391c-10.233-.281-18.316 17.145-18.316 17.145s-25.683 51.307 9.505 48.54c35.188-2.767 18.373-23.248 18.373-23.248s-8.025-10.814-6.474-22.046Z"/><path fill="#334155" d="M80.14 333.061c-4.532 2.21-9.267 4.464-14.222 4.248-4.956-.215-10.172-3.713-10.944-9.082-.399-2.772.392-5.745-.576-8.343-1.303-3.495-5.506-4.842-8.773-3.645-3.267 1.198-5.667 4.286-7.388 7.557-3.22 6.119-4.51 14.15-1.057 20.114 2.992 5.171 8.668 7.508 13.947 9.512 7.033 2.669 14.884 5.319 21.698 2.04 6.854-3.298 10.587-12.826 8.049-20.543"/><path fill="#14B8A6" d="M95.258 236.172s-9.007 4.936-4.504 10.321c4.504 5.384 32.346 20.64 42.582 18.397 10.236-2.244 12.693-8.975 12.693-10.769 0-1.795-.772-23.507-4.048-22.609-3.275.897-23.794 21.262-46.723 4.66Z"/><path fill="#334155" d="m89.163 298.369 4.504 61.473s-6.141 17.051 14.74 16.154c20.882-.898 8.598-35.897 8.598-35.897l-6.551-45.768"/></g><path fill="#06B6D4" d="M213.928 182.404C213.928 142.853 243.292 49 279.514 49c36.222 0 65.586 93.853 65.586 133.404 0 18.993-6.91 37.209-19.21 50.639-12.299 13.43-28.981 20.975-46.376 20.975-17.395 0-34.077-7.545-46.376-20.975-12.3-13.43-19.21-31.646-19.21-50.639Z"/><path fill="#64748B" d="M279.514 356.632a.518.518 0 0 1-.381-.172.614.614 0 0 1-.158-.417v-246.9c0-.156.056-.306.158-.417a.518.518 0 0 1 .381-.172c.143 0 .28.062.381.172a.621.621 0 0 1 .158.417v246.9a.62.62 0 0 1-.158.417.518.518 0 0 1-.381.172Z"/><path fill="#64748B" d="M279.514 156.809a.506.506 0 0 1-.381-.173l-25.959-28.344a.602.602 0 0 1-.161-.418c0-.077.014-.154.041-.226a.549.549 0 0 1 .293-.32.497.497 0 0 1 .414.002c.066.03.126.074.175.129l25.959 28.344a.635.635 0 0 1 .117.642.579.579 0 0 1-.198.264.507.507 0 0 1-.3.1ZM279.514 205.878a.506.506 0 0 1-.3-.099.579.579 0 0 1-.198-.264.635.635 0 0 1 .117-.642l43.472-47.468a.548.548 0 0 1 .175-.129.5.5 0 0 1 .415-.002.549.549 0 0 1 .293.32.646.646 0 0 1-.001.452.602.602 0 0 1-.119.192l-43.473 47.468a.534.534 0 0 1-.175.128.49.49 0 0 1-.206.044Z"/><path fill="#0891B2" d="M289.026 263.053c0-21.22 15.765-71.574 35.212-71.574 19.447 0 35.212 50.354 35.212 71.574-.006 10.192-3.719 19.965-10.322 27.17-6.602 7.205-15.555 11.252-24.89 11.252s-18.287-4.047-24.89-11.252c-6.603-7.205-10.316-16.978-10.322-27.17Z"/><path fill="#64748B" d="M324.238 356.53a.288.288 0 0 1-.111-.024.3.3 0 0 1-.156-.171.336.336 0 0 1-.022-.121V223.746a.33.33 0 0 1 .085-.222.278.278 0 0 1 .204-.093c.077 0 .15.034.204.093a.331.331 0 0 1 .086.222v132.468a.323.323 0 0 1-.085.223.284.284 0 0 1-.205.093Z"/><path fill="#64748B" d="M324.238 249.32a.267.267 0 0 1-.111-.024.298.298 0 0 1-.094-.068l-13.936-15.208a.328.328 0 0 1-.085-.223c0-.084.03-.165.085-.224a.277.277 0 0 1 .204-.092c.077 0 .151.033.205.092l13.937 15.208c.04.044.068.1.079.162a.352.352 0 0 1-.016.182.311.311 0 0 1-.107.142.272.272 0 0 1-.161.053ZM324.238 275.647a.272.272 0 0 1-.161-.053.316.316 0 0 1-.106-.142.342.342 0 0 1-.017-.182.325.325 0 0 1 .079-.162l23.34-25.468a.284.284 0 0 1 .205-.093.284.284 0 0 1 .205.093.336.336 0 0 1 .062.344.308.308 0 0 1-.062.103l-23.34 25.468a.298.298 0 0 1-.094.068.267.267 0 0 1-.111.024Z"/><path fill="#E2E8F0" d="M213.515 94a.391.391 0 0 1-.282-.124.488.488 0 0 1-.13-.307c-.341-5.193-2.418-10.051-5.816-13.601-3.397-3.55-7.865-5.53-12.509-5.544-.557 0-1.141.031-1.735.094a.377.377 0 0 1-.229-.05.438.438 0 0 1-.168-.181c-2.131-4.183-5.314-7.57-9.151-9.738-3.837-2.168-8.158-3.02-12.424-2.451s-8.288 2.534-11.565 5.65c-3.276 3.117-5.662 7.247-6.858 11.874a.474.474 0 0 1-.153.244.385.385 0 0 1-.253.09l-.138-.005c-.073-.002-.145-.005-.218-.005-3.526.012-6.943 1.376-9.683 3.866s-4.638 5.954-5.38 9.82a.481.481 0 0 1-.144.265.386.386 0 0 1-.26.103h-34.726a.39.39 0 0 1-.291-.136.49.49 0 0 1-.121-.327.49.49 0 0 1 .121-.327.39.39 0 0 1 .291-.136h34.394c.844-3.992 2.862-7.549 5.727-10.098 2.866-2.55 6.414-3.943 10.072-3.956a4 4 0 0 1 .06 0c1.401-5.095 4.183-9.574 7.958-12.815 3.945-3.392 8.781-5.223 13.752-5.205 3.955.009 7.84 1.172 11.272 3.376 3.432 2.204 6.293 5.373 8.301 9.194.53-.048 1.049-.072 1.549-.072 4.852.014 9.521 2.084 13.072 5.793 3.55 3.71 5.721 8.786 6.077 14.213a.516.516 0 0 1-.1.337.424.424 0 0 1-.128.11.375.375 0 0 1-.184.049ZM193.372 101h-70.619a.375.375 0 0 1-.289-.147.565.565 0 0 1-.119-.353c0-.132.043-.259.119-.353a.375.375 0 0 1 .289-.147h70.619c.108 0 .212.053.288.147a.56.56 0 0 1 .12.353.56.56 0 0 1-.12.353.373.373 0 0 1-.288.147ZM142.996 109h-28.481a.38.38 0 0 1-.292-.146.562.562 0 0 1-.121-.354c0-.133.044-.26.121-.354a.38.38 0 0 1 .292-.146h28.481a.38.38 0 0 1 .292.146.562.562 0 0 1 .121.354c0 .133-.044.26-.121.354a.38.38 0 0 1-.292.146ZM157.452 60a.584.584 0 0 1-.416-.179.69.69 0 0 1-.192-.439c-.399-5.904-2.829-11.426-6.804-15.462-3.975-4.035-9.202-6.286-14.635-6.302-.65 0-1.333.036-2.03.107a.567.567 0 0 1-.338-.072.634.634 0 0 1-.248-.26c-2.496-4.76-6.223-8.613-10.716-11.08-4.492-2.466-9.552-3.436-14.548-2.788-4.996.647-9.706 2.883-13.542 6.43-3.837 3.545-6.63 8.244-8.032 13.509a.665.665 0 0 1-.224.351.573.573 0 0 1-.376.128l-.162-.005c-.084-.003-.168-.007-.253-.007-4.121.015-8.114 1.563-11.315 4.39-3.202 2.827-5.42 6.762-6.288 11.151a.676.676 0 0 1-.212.38.58.58 0 0 1-.385.148h-40.86a.585.585 0 0 1-.43-.195.696.696 0 0 1-.18-.47c0-.176.065-.345.18-.47a.585.585 0 0 1 .43-.194h40.372c1.016-4.566 3.407-8.63 6.79-11.542 3.384-2.913 7.565-4.506 11.877-4.527 1.535-5.41 4.478-10.218 8.474-13.84 3.995-3.622 8.869-5.902 14.031-6.562 5.161-.661 10.388.326 15.044 2.84 4.657 2.515 8.543 6.45 11.187 11.325a20.757 20.757 0 0 1 1.754-.076c5.741.017 11.265 2.395 15.466 6.66 4.2 4.265 6.768 10.1 7.19 16.34a.704.704 0 0 1-.148.482.624.624 0 0 1-.189.16.565.565 0 0 1-.272.069ZM150.129 69H50.601c-.161 0-.316-.105-.43-.293a1.391 1.391 0 0 1-.177-.707c0-.265.064-.52.178-.707.114-.188.268-.293.429-.293h99.528c.161 0 .315.105.429.293.114.187.177.442.177.707 0 .265-.063.52-.177.707-.114.188-.268.293-.429.293ZM74.127 78H41.43a.656.656 0 0 1-.42-.146.464.464 0 0 1-.174-.354c0-.133.062-.26.174-.354a.656.656 0 0 1 .42-.146h32.697c.158 0 .309.053.42.146a.464.464 0 0 1 .174.354c0 .133-.062.26-.174.354a.656.656 0 0 1-.42.146Z"/><defs><clipPath id="a"><path fill="#fff" d="M315.585 159.479H-48v217h363.585z"/></clipPath></defs></svg>