<svg width="180" height="154" fill="none" xmlns="http://www.w3.org/2000/svg"><path d="m147.694 153.917-129.643.045c-6.513.002-12.347-3.364-15.606-9.003-1.629-2.82-2.444-5.913-2.445-9.008-.001-3.093.812-6.188 2.44-9.008L67.22 9.013C70.475 3.372 76.306.003 82.82 0c6.512-.002 12.346 3.363 15.605 9.003l64.871 117.899c1.625 2.812 2.437 5.902 2.438 8.994 0 3.092-.813 6.186-2.441 9.007-3.254 5.642-9.086 9.012-15.599 9.014ZM1.63 135.949c0 2.817 14.305-3.252 15.787-.687 2.965 5.131-5.292 17.076.633 17.074 0 0 140.874-3.113 143.835-8.245 1.48-2.566 2.22-5.382 2.219-8.196-.001-2.815-.743-5.629-2.225-8.195L97.009 9.801c-2.957-5.115-8.264-8.177-14.19-8.175-5.922.002-81.19 131.507-81.19 134.323Z" fill="#3F3D56"/><path d="M120.649 127.909c32.779 0 59.351-26.572 59.351-59.35 0-32.78-26.572-59.352-59.351-59.352-32.779 0-59.351 26.572-59.351 59.351 0 32.779 26.572 59.351 59.351 59.351Z" fill="#F43F5E"/><path d="M120.66 104.941a5.45 5.45 0 1 0-.001-10.9 5.45 5.45 0 0 0 .001 10.9Zm-.024-72.766c-.5 3.326.397 4.022.402 18.362.004 14.34 2.98 33.567-.384 33.568-3.364.001-4.594-39.678-16.274-43.19-13.733-4.129 17.877-19.508 16.256-8.74Z" fill="#fff"/><path d="M21.629 139.287c1.68.105 2.607-1.982 1.336-3.198l-.127-.503.05-.12a4.725 4.725 0 0 1 6.156-2.532c7.573 3.131-.422 10.326.179 15.194.21 1.68 6.792 1.773 6.42 3.422 3.5-7.653 5.34-16.008 5.337-24.41 0-2.111-.117-4.222-.354-6.328a58.266 58.266 0 0 0-.81-5.13c-1.878-9.168-5.94-17.9-11.798-25.191-2.815-1.538-1.098-3.944-2.517-6.826-.51-1.04-5.055-1.063-5.245-2.202.204.026 3.142-3.026 2.171-4.534-.638-.993-.44-2.258.381-3.106.08-.083.156-.171.226-.266 2.424-3.288 5.765-2.715 7.51 1.751 3.726 1.88 3.763 4.998 1.478 7.998-1.453 1.908-1.652 4.49-2.928 6.533.132.168.268.33.4.499a59.841 59.841 0 0 1 6.248 9.891c-.497-3.875.233-8.543 1.48-11.553 1.431-3.454 4.123-6.36 6.48-9.347 2.815-3.568 8.545-1.95 9.043 2.569l.014.13a17 17 0 0 0-1.024.626c-1.901 1.26-1.242 4.207 1.012 4.554l.05.008c-.125 1.255-4.579 5.209-4.893 6.432 3.012 11.634.758 13.169-8.51 13.364l-.486.693a59.557 59.557 0 0 1 2.116 7.73 60.02 60.02 0 0 1 1.042 7.357 57.915 57.915 0 0 1-.039 9.352l.016-.11c.666-3.424 2.523-6.623 5.222-8.84 4.02-3.304 9.7-4.523 14.037-7.179 2.087-1.279 4.764.372 4.4 2.793l-.017.116a16.604 16.604 0 0 0-2.91 1.536c-1.902 1.259-1.242 4.208 1.012 4.553l.051.008.105.016c-1.107 2.631-11.655 6.343-13.587 8.449-1.878 10.161-.955 9.859-9.602 6.903h-.005a61.052 61.052 0 0 1-4.098 11.974l-14.65.005c-.053-.162-.1-.331-.148-.493a16.69 16.69 0 0 0 4.054-.243c-1.087-1.334-2.175-2.678-3.262-4.011-.026-.026-.047-.053-.069-.079l-.016-.02-1.508-4.966a25.03 25.03 0 0 1 .577-3.269Z" fill="#E2E8F0"/></svg>