<svg width="346" height="332" fill="none" xmlns="http://www.w3.org/2000/svg"><path d="M47 .5h251c10.77 0 19.5 8.73 19.5 19.5v311.5h-290V20C27.5 9.23 36.23.5 47 .5Z" fill="#fff" stroke="#E2E8F0"/><path d="M43 312a8 8 0 0 1 8-8h243a8 8 0 0 1 8 8v20H43v-20Z" fill="#E2E8F0" fill-opacity=".35"/><rect x="89" y="8" width="167" height="27" rx="13.5" fill="#CBD5E1"/><rect x="43" y="199" width="259" height="89" rx="8" fill="#E2E8F0" fill-opacity=".35"/><rect x="43" y="63" width="259" height="89" rx="8" fill="#E2E8F0" fill-opacity=".35"/><circle cx="103" cy="21" r="10" fill="#64748B"/><rect x=".5" y="77.5" width="345" height="199" rx="3.5" fill="#fff" stroke="#E2E8F0"/><path d="M108.959 108v-8.727h3.111c.679 0 1.241.123 1.687.37.446.248.78.586 1.002 1.015.221.426.332.906.332 1.44 0 .537-.112 1.02-.337 1.449a2.436 2.436 0 0 1-1.005 1.014c-.446.247-1.008.371-1.684.371h-2.139v-1.117h2.02c.429 0 .777-.074 1.044-.221.267-.151.463-.355.588-.614.125-.258.188-.552.188-.882 0-.33-.063-.622-.188-.878a1.343 1.343 0 0 0-.592-.601c-.267-.145-.62-.217-1.057-.217h-1.653V108h-1.317Zm7.573 0v-6.545h1.232v1.039h.068c.119-.352.33-.629.631-.831a1.806 1.806 0 0 1 1.031-.306 5.037 5.037 0 0 1 .541.029v1.219a2.3 2.3 0 0 0-.273-.047c-.13-.02-.261-.03-.392-.03a1.66 1.66 0 0 0-.805.192 1.425 1.425 0 0 0-.759 1.283V108h-1.274Zm7.192.132c-.644 0-1.2-.138-1.666-.413a2.808 2.808 0 0 1-1.074-1.172c-.25-.506-.375-1.098-.375-1.777 0-.671.125-1.261.375-1.773.253-.511.605-.91 1.057-1.197.455-.287.986-.431 1.594-.431.369 0 .727.061 1.074.184.346.122.657.313.933.575.276.261.493.601.652 1.018.159.415.239.919.239 1.513v.452h-5.203v-.955h3.954c0-.335-.068-.632-.204-.89a1.546 1.546 0 0 0-.576-.618 1.603 1.603 0 0 0-.861-.226c-.357 0-.67.088-.937.264a1.777 1.777 0 0 0-.614.682 1.968 1.968 0 0 0-.213.908v.745c0 .438.077.81.23 1.117.157.307.374.541.652.703.279.159.604.239.976.239.242 0 .462-.035.661-.103a1.37 1.37 0 0 0 .848-.831l1.206.218c-.097.355-.27.666-.52.933-.247.264-.558.47-.933.618a3.496 3.496 0 0 1-1.275.217Zm6.979 0c-.633 0-1.178-.143-1.636-.43a2.85 2.85 0 0 1-1.048-1.198c-.244-.508-.367-1.091-.367-1.747 0-.665.125-1.251.375-1.76.25-.511.603-.91 1.057-1.197.455-.287.99-.431 1.607-.431.497 0 .94.093 1.329.277.389.182.703.438.942.767.241.33.385.715.43 1.155h-1.24a1.481 1.481 0 0 0-.468-.792c-.242-.222-.566-.333-.972-.333-.355 0-.666.094-.933.281-.264.185-.47.449-.618.793-.148.341-.222.744-.222 1.21 0 .478.073.889.218 1.236.144.347.349.615.613.805.267.191.581.286.942.286.241 0 .46-.044.656-.132.199-.091.365-.22.499-.388.136-.168.231-.369.285-.605h1.24a2.403 2.403 0 0 1-.413 1.133c-.23.333-.538.594-.925.785-.383.19-.833.285-1.351.285Zm4.052-.132v-6.545h1.274V108h-1.274Zm.643-7.555a.812.812 0 0 1-.571-.222.722.722 0 0 1-.234-.537c0-.21.078-.39.234-.537.16-.15.35-.226.571-.226.222 0 .411.076.567.226a.707.707 0 0 1 .239.537c0 .207-.08.386-.239.537a.794.794 0 0 1-.567.222Zm7.25 2.608-1.155.204a1.367 1.367 0 0 0-.23-.422 1.138 1.138 0 0 0-.417-.328 1.521 1.521 0 0 0-.661-.128c-.361 0-.662.081-.903.243-.242.159-.363.365-.363.618a.65.65 0 0 0 .243.528c.162.134.424.243.784.329l1.04.238c.602.139 1.051.354 1.347.644.295.289.443.666.443 1.129 0 .392-.114.741-.341 1.048-.224.304-.538.543-.942.716-.4.173-.865.26-1.393.26-.733 0-1.331-.156-1.794-.469-.463-.315-.747-.762-.853-1.342l1.232-.187c.077.321.234.563.473.728.239.162.55.243.933.243.418 0 .752-.087 1.002-.26.25-.176.375-.39.375-.643a.67.67 0 0 0-.23-.516c-.151-.139-.383-.244-.695-.315l-1.108-.243c-.611-.139-1.062-.361-1.355-.665-.29-.304-.435-.689-.435-1.155 0-.386.108-.724.324-1.014.216-.29.514-.516.895-.678a3.28 3.28 0 0 1 1.308-.247c.708 0 1.264.154 1.671.461.406.304.674.711.805 1.223Zm3.434 5.092c-.415 0-.79-.077-1.125-.23a1.886 1.886 0 0 1-.797-.678c-.193-.295-.29-.657-.29-1.086 0-.37.071-.674.213-.912.142-.239.334-.428.575-.567.242-.139.512-.244.81-.315.298-.071.602-.125.912-.162l.955-.111c.244-.031.421-.081.532-.149.111-.069.166-.179.166-.333v-.03c0-.372-.105-.66-.315-.865-.207-.204-.517-.306-.929-.306-.429 0-.767.095-1.014.285-.244.188-.413.396-.507.626l-1.198-.272c.142-.398.35-.719.622-.963.276-.247.593-.426.951-.537a3.697 3.697 0 0 1 1.129-.171c.261 0 .538.032.831.094.295.06.571.171.827.332.258.162.47.394.635.695.164.298.247.686.247 1.163V108h-1.245v-.895h-.051a1.813 1.813 0 0 1-.37.486 1.977 1.977 0 0 1-.635.396 2.47 2.47 0 0 1-.929.158Zm.277-1.023c.352 0 .653-.069.903-.209.253-.139.445-.321.575-.545a1.41 1.41 0 0 0 .201-.729v-.844a.652.652 0 0 1-.265.128c-.127.037-.274.07-.438.098l-.482.073-.392.051a3.148 3.148 0 0 0-.678.158c-.201.073-.363.18-.485.319-.12.137-.179.318-.179.546 0 .315.116.554.349.716.233.159.53.238.891.238Zm5.924-3.008V108h-1.274v-6.545h1.223v1.065h.081c.15-.347.386-.625.707-.835.324-.211.732-.316 1.223-.316.446 0 .837.094 1.172.282.335.184.595.46.78.826.185.367.277.82.277 1.36V108h-1.274v-4.01c0-.474-.124-.845-.371-1.112-.247-.27-.587-.405-1.018-.405-.296 0-.559.064-.789.192a1.384 1.384 0 0 0-.541.562c-.131.245-.196.54-.196.887Zm8.348 4.014c-.528 0-1-.135-1.415-.405-.412-.273-.736-.661-.971-1.163-.233-.506-.35-1.113-.35-1.82 0-.707.118-1.312.354-1.815.239-.503.565-.888.98-1.155a2.55 2.55 0 0 1 1.411-.401c.406 0 .733.069.98.205.25.133.443.29.579.469.139.179.247.336.324.473h.077v-3.243h1.274V108h-1.244v-1.018h-.107a3.393 3.393 0 0 1-.332.477 1.853 1.853 0 0 1-.588.469c-.25.133-.574.2-.972.2Zm.281-1.087c.367 0 .676-.096.929-.29.256-.196.449-.467.58-.813.133-.347.2-.751.2-1.211 0-.454-.065-.852-.196-1.193a1.757 1.757 0 0 0-.575-.797c-.253-.19-.566-.285-.938-.285-.383 0-.703.099-.959.298a1.83 1.83 0 0 0-.579.814 3.314 3.314 0 0 0-.192 1.163c0 .438.066.831.196 1.181.131.349.324.626.58.831.258.201.576.302.954.302Zm7.538 1.091c-.614 0-1.15-.141-1.607-.422a2.843 2.843 0 0 1-1.065-1.18c-.253-.506-.38-1.097-.38-1.773 0-.679.127-1.273.38-1.781a2.839 2.839 0 0 1 1.065-1.185c.457-.281.993-.422 1.607-.422.613 0 1.149.141 1.606.422.457.281.813.676 1.065 1.185.253.508.38 1.102.38 1.781 0 .676-.127 1.267-.38 1.773a2.836 2.836 0 0 1-1.065 1.18c-.457.281-.993.422-1.606.422Zm.004-1.07c.398 0 .727-.105.988-.315.262-.21.455-.49.58-.839a3.34 3.34 0 0 0 .192-1.155c0-.418-.064-.801-.192-1.151a1.871 1.871 0 0 0-.58-.848c-.261-.213-.59-.319-.988-.319-.401 0-.733.106-.997.319a1.902 1.902 0 0 0-.584.848c-.125.35-.188.733-.188 1.151 0 .42.063.805.188 1.155.128.349.322.629.584.839.264.21.596.315.997.315Zm10.095 1.066c-.528 0-1-.135-1.415-.405-.412-.273-.736-.661-.971-1.163-.233-.506-.35-1.113-.35-1.82 0-.707.118-1.312.354-1.815.239-.503.565-.888.98-1.155a2.55 2.55 0 0 1 1.411-.401c.406 0 .732.069.98.205.25.133.443.29.579.469.139.179.247.336.324.473h.077v-3.243h1.274V108h-1.244v-1.018h-.107a3.393 3.393 0 0 1-.332.477 1.853 1.853 0 0 1-.588.469c-.25.133-.574.2-.972.2Zm.281-1.087c.367 0 .676-.096.929-.29.256-.196.449-.467.58-.813.133-.347.2-.751.2-1.211 0-.454-.065-.852-.196-1.193a1.757 1.757 0 0 0-.575-.797c-.253-.19-.566-.285-.938-.285-.383 0-.703.099-.959.298a1.83 1.83 0 0 0-.579.814 3.314 3.314 0 0 0-.192 1.163c0 .438.065.831.196 1.181.131.349.324.626.58.831.258.201.576.302.954.302Zm7.601 1.091c-.644 0-1.2-.138-1.666-.413a2.808 2.808 0 0 1-1.074-1.172c-.25-.506-.375-1.098-.375-1.777 0-.671.125-1.261.375-1.773a2.92 2.92 0 0 1 1.057-1.197c.455-.287.986-.431 1.594-.431.369 0 .727.061 1.074.184.346.122.658.313.933.575.276.261.493.601.652 1.018.159.415.239.919.239 1.513v.452h-5.203v-.955h3.954c0-.335-.068-.632-.204-.89a1.546 1.546 0 0 0-.576-.618 1.603 1.603 0 0 0-.861-.226c-.357 0-.67.088-.937.264a1.777 1.777 0 0 0-.614.682 1.968 1.968 0 0 0-.213.908v.745c0 .438.077.81.23 1.117.157.307.374.541.652.703.279.159.604.239.976.239.242 0 .462-.035.661-.103a1.37 1.37 0 0 0 .848-.831l1.206.218c-.097.355-.27.666-.52.933-.247.264-.558.47-.933.618a3.496 3.496 0 0 1-1.275.217Zm7.398-.132v-6.545h1.223v1.065h.081c.137-.361.36-.642.669-.844.31-.204.681-.307 1.112-.307.438 0 .804.103 1.1.307.298.205.518.486.66.844h.069c.156-.35.404-.628.745-.835.341-.211.747-.316 1.219-.316.594 0 1.078.186 1.453.559.378.372.567.933.567 1.683V108h-1.274v-4.27c0-.443-.121-.764-.362-.963a1.319 1.319 0 0 0-.866-.298c-.414 0-.737.128-.967.383-.23.253-.345.578-.345.976V108h-1.27v-4.351c0-.355-.111-.64-.332-.856-.222-.216-.51-.324-.865-.324-.242 0-.465.064-.669.192a1.4 1.4 0 0 0-.49.524 1.593 1.593 0 0 0-.184.779V108h-1.274Zm12.51.145c-.414 0-.789-.077-1.125-.23a1.89 1.89 0 0 1-.796-.678c-.194-.295-.29-.657-.29-1.086 0-.37.071-.674.213-.912.142-.239.334-.428.575-.567.242-.139.512-.244.81-.315.298-.071.602-.125.912-.162l.954-.111c.245-.031.422-.081.533-.149.111-.069.166-.179.166-.333v-.03c0-.372-.105-.66-.315-.865-.208-.204-.517-.306-.929-.306-.429 0-.767.095-1.014.285-.245.188-.414.396-.507.626l-1.198-.272c.142-.398.35-.719.622-.963.276-.247.593-.426.951-.537a3.697 3.697 0 0 1 1.129-.171c.261 0 .538.032.831.094.295.06.571.171.827.332.258.162.47.394.634.695.165.298.248.686.248 1.163V108h-1.245v-.895h-.051a1.798 1.798 0 0 1-.371.486 1.956 1.956 0 0 1-.635.396 2.463 2.463 0 0 1-.929.158Zm.277-1.023c.353 0 .654-.069.904-.209.253-.139.444-.321.575-.545.134-.227.2-.47.2-.729v-.844c-.045.046-.133.089-.264.128-.128.037-.274.07-.439.098-.164.026-.325.05-.481.073l-.392.051a3.148 3.148 0 0 0-.678.158 1.16 1.16 0 0 0-.486.319c-.119.137-.179.318-.179.546 0 .315.117.554.35.716.233.159.53.238.89.238Zm5.925-3.008V108h-1.274v-6.545h1.223v1.065h.081c.15-.347.386-.625.707-.835.324-.211.732-.316 1.223-.316.446 0 .837.094 1.172.282.335.184.595.46.78.826.184.367.277.82.277 1.36V108h-1.274v-4.01c0-.474-.124-.845-.371-1.112-.247-.27-.587-.405-1.019-.405-.295 0-.558.064-.788.192a1.378 1.378 0 0 0-.541.562c-.131.245-.196.54-.196.887Zm10.044 1.172v-3.831h1.278V108h-1.253v-1.134h-.068c-.15.35-.392.641-.724.874-.33.23-.74.345-1.232.345a2.21 2.21 0 0 1-1.116-.277 1.944 1.944 0 0 1-.759-.831c-.182-.366-.272-.819-.272-1.359v-4.163h1.274v4.009c0 .447.123.802.37 1.066.248.264.569.396.964.396.238 0 .475-.06.711-.179.239-.119.436-.3.592-.541.16-.242.238-.548.235-.92Zm6.046-3.831v1.022h-3.576v-1.022h3.576Zm-2.617-1.569h1.274v6.192c0 .247.037.433.111.558a.577.577 0 0 0 .286.252c.119.042.248.064.387.064.103 0 .192-.007.269-.022a7.57 7.57 0 0 0 .179-.034l.23 1.053a2.534 2.534 0 0 1-.827.136 2.237 2.237 0 0 1-.937-.179 1.608 1.608 0 0 1-.703-.579c-.179-.262-.269-.59-.269-.985v-6.456Zm6.777 8.246c-.645 0-1.2-.138-1.666-.413a2.808 2.808 0 0 1-1.074-1.172c-.25-.506-.375-1.098-.375-1.777 0-.671.125-1.261.375-1.773.253-.511.605-.91 1.057-1.197.454-.287.985-.431 1.593-.431.37 0 .728.061 1.074.184.347.122.658.313.933.575.276.261.493.601.652 1.018.16.415.239.919.239 1.513v.452h-5.203v-.955h3.954c0-.335-.068-.632-.204-.89a1.537 1.537 0 0 0-.575-.618 1.607 1.607 0 0 0-.861-.226c-.358 0-.671.088-.938.264a1.774 1.774 0 0 0-.613.682 1.968 1.968 0 0 0-.213.908v.745c0 .438.076.81.23 1.117.156.307.373.541.652.703.278.159.603.239.976.239.241 0 .461-.035.66-.103a1.368 1.368 0 0 0 .848-.831l1.206.218c-.096.355-.27.666-.52.933-.247.264-.558.47-.933.618a3.49 3.49 0 0 1-1.274.217Zm5.496-4.018V108h-1.274v-6.545h1.223v1.065h.081c.15-.347.386-.625.707-.835.324-.211.732-.316 1.223-.316.446 0 .837.094 1.172.282.335.184.595.46.78.826.185.367.277.82.277 1.36V108h-1.274v-4.01c0-.474-.124-.845-.371-1.112-.247-.27-.587-.405-1.019-.405-.295 0-.558.064-.788.192a1.378 1.378 0 0 0-.541.562c-.131.245-.196.54-.196.887Zm8.655 4.018c-.634 0-1.179-.143-1.637-.43a2.85 2.85 0 0 1-1.048-1.198c-.244-.508-.366-1.091-.366-1.747 0-.665.125-1.251.375-1.76.25-.511.602-.91 1.056-1.197.455-.287.991-.431 1.607-.431.497 0 .94.093 1.33.277.389.182.703.438.941.767.242.33.385.715.431 1.155h-1.24a1.489 1.489 0 0 0-.469-.792c-.242-.222-.565-.333-.972-.333-.355 0-.666.094-.933.281-.264.185-.47.449-.618.793-.148.341-.221.744-.221 1.21 0 .478.072.889.217 1.236.145.347.349.615.614.805.267.191.58.286.941.286.242 0 .461-.044.657-.132.198-.091.365-.22.498-.388.136-.168.232-.369.286-.605h1.24a2.415 2.415 0 0 1-.414 1.133 2.38 2.38 0 0 1-.924.785c-.384.19-.834.285-1.351.285Zm-.46-.166h.835l-.068.349c.247.04.463.14.647.299.185.159.277.399.277.72.003.383-.163.694-.498.933-.333.239-.814.358-1.445.358l-.025-.712c.295 0 .534-.042.715-.127.185-.086.279-.224.282-.414.003-.19-.068-.324-.213-.4-.142-.077-.37-.131-.682-.162l.175-.844Zm6.416.179c-.415 0-.79-.077-1.125-.23a1.892 1.892 0 0 1-.797-.678c-.193-.295-.29-.657-.29-1.086 0-.37.071-.674.214-.912.142-.239.333-.428.575-.567.241-.139.511-.244.809-.315.299-.071.603-.125.912-.162l.955-.111c.244-.031.422-.081.533-.149.11-.069.166-.179.166-.333v-.03c0-.372-.105-.66-.316-.865-.207-.204-.517-.306-.929-.306-.429 0-.767.095-1.014.285-.244.188-.413.396-.507.626l-1.197-.272c.142-.398.349-.719.622-.963.275-.247.592-.426.95-.537a3.702 3.702 0 0 1 1.129-.171c.262 0 .539.032.831.094.296.06.571.171.827.332.259.162.47.394.635.695.165.298.247.686.247 1.163V108h-1.244v-.895h-.051a1.818 1.818 0 0 1-.371.486 1.966 1.966 0 0 1-.635.396 2.463 2.463 0 0 1-.929.158Zm.277-1.023c.352 0 .653-.069.903-.209.253-.139.445-.321.576-.545.133-.227.2-.47.2-.729v-.844c-.045.046-.133.089-.264.128-.128.037-.274.07-.439.098l-.482.073-.392.051a3.125 3.125 0 0 0-.677.158c-.202.073-.364.18-.486.319-.119.137-.179.318-.179.546 0 .315.116.554.349.716.233.159.53.238.891.238Zm-.801-6.46-.857-.026c0-.471.127-.848.38-1.129.255-.281.571-.422.946-.422.173 0 .325.03.456.09.13.056.252.123.366.2.117.074.232.14.345.2a.876.876 0 0 0 .388.085.494.494 0 0 0 .401-.187.697.697 0 0 0 .157-.465l.84.056c0 .474-.128.848-.384 1.121-.255.27-.569.406-.941.409-.202 0-.37-.029-.503-.085a2.084 2.084 0 0 1-.35-.201 2.681 2.681 0 0 0-.315-.204.786.786 0 0 0-.388-.09.484.484 0 0 0-.392.188.706.706 0 0 0-.149.46Zm8.208 7.47c-.613 0-1.149-.141-1.606-.422a2.83 2.83 0 0 1-1.065-1.18c-.253-.506-.38-1.097-.38-1.773 0-.679.127-1.273.38-1.781a2.825 2.825 0 0 1 1.065-1.185c.457-.281.993-.422 1.606-.422.614 0 1.15.141 1.607.422.457.281.812.676 1.065 1.185.253.508.38 1.102.38 1.781 0 .676-.127 1.267-.38 1.773a2.843 2.843 0 0 1-1.065 1.18c-.457.281-.993.422-1.607.422Zm.005-1.07c.397 0 .727-.105.988-.315.262-.21.455-.49.58-.839a3.34 3.34 0 0 0 .192-1.155c0-.418-.064-.801-.192-1.151a1.871 1.871 0 0 0-.58-.848c-.261-.213-.591-.319-.988-.319-.401 0-.733.106-.998.319a1.908 1.908 0 0 0-.583.848c-.125.35-.188.733-.188 1.151 0 .42.063.805.188 1.155.128.349.322.629.583.839.265.21.597.315.998.315ZM90 93a10 10 0 1 0 10 10 10.011 10.011 0 0 0-10-10Zm0 18.462a8.468 8.468 0 0 1-7.817-5.224A8.46 8.46 0 1 1 98.46 103 8.47 8.47 0 0 1 90 111.462Zm1.538-3.847a.77.77 0 0 1-.769.77 1.537 1.537 0 0 1-1.538-1.539V103a.77.77 0 0 1-.544-1.313.77.77 0 0 1 .544-.225A1.54 1.54 0 0 1 90.769 103v3.846a.77.77 0 0 1 .77.769Zm-3.076-8.846a1.154 1.154 0 1 1 2.307 0 1.154 1.154 0 0 1-2.308 0ZM132.366 247.818l2.65 8.014h.105l2.645-8.014h2.028L136.205 258h-2.277l-3.585-10.182h2.023Zm11.25 10.331c-.766 0-1.427-.159-1.984-.477a3.238 3.238 0 0 1-1.277-1.362c-.299-.59-.448-1.285-.448-2.083 0-.786.149-1.475.448-2.069a3.386 3.386 0 0 1 1.262-1.392c.541-.334 1.175-.502 1.904-.502.471 0 .915.076 1.333.229.421.149.792.381 1.114.696.324.315.58.716.765 1.203.186.484.279 1.061.279 1.73v.552h-6.26v-1.213h4.534a1.932 1.932 0 0 0-.223-.92 1.627 1.627 0 0 0-.612-.641 1.716 1.716 0 0 0-.905-.234c-.368 0-.691.09-.969.269a1.829 1.829 0 0 0-.651.696 1.992 1.992 0 0 0-.234.939v1.059c0 .444.081.826.244 1.144.162.315.389.557.681.726.291.165.633.248 1.024.248.262 0 .499-.036.711-.109.212-.076.396-.187.552-.333.155-.146.273-.327.353-.542l1.68.189a2.61 2.61 0 0 1-.607 1.163 2.963 2.963 0 0 1-1.133.766c-.461.179-.988.268-1.581.268Zm4.918-.149v-7.636h1.745v1.272h.08c.139-.44.378-.78.716-1.019.341-.242.73-.363 1.168-.363.099 0 .21.005.333.015.126.007.23.018.313.035v1.656a1.85 1.85 0 0 0-.363-.07 3.367 3.367 0 0 0-.472-.035c-.328 0-.623.071-.885.214a1.562 1.562 0 0 0-.611.582 1.63 1.63 0 0 0-.224.86V258h-1.8Zm11.857.134c-.6 0-1.137-.154-1.61-.462-.474-.308-.849-.756-1.124-1.342-.275-.587-.413-1.3-.413-2.138 0-.849.14-1.565.418-2.148.282-.587.661-1.029 1.138-1.327a2.927 2.927 0 0 1 1.596-.453c.448 0 .816.076 1.104.229.288.149.517.33.686.542.169.209.3.406.393.591h.074v-3.808h1.805V258h-1.77v-1.203h-.109a3.063 3.063 0 0 1-.403.591 2.203 2.203 0 0 1-.696.527c-.288.146-.651.219-1.089.219Zm.502-1.476c.382 0 .706-.103.975-.309.268-.208.472-.498.611-.87.14-.371.209-.803.209-1.297 0-.494-.069-.923-.209-1.288a1.83 1.83 0 0 0-.606-.85c-.265-.202-.592-.303-.98-.303-.401 0-.735.104-1.004.313a1.9 1.9 0 0 0-.606.865 3.63 3.63 0 0 0-.204 1.263c0 .477.068.903.204 1.278.139.371.343.664.611.879.272.213.605.319.999.319Zm8.864 1.491c-.766 0-1.427-.159-1.984-.477a3.24 3.24 0 0 1-1.278-1.362c-.298-.59-.447-1.285-.447-2.083 0-.786.149-1.475.447-2.069a3.395 3.395 0 0 1 1.263-1.392c.54-.334 1.175-.502 1.904-.502.471 0 .915.076 1.332.229.421.149.793.381 1.114.696.325.315.58.716.766 1.203.185.484.278 1.061.278 1.73v.552h-6.259v-1.213h4.534a1.932 1.932 0 0 0-.224-.92 1.625 1.625 0 0 0-.611-.641 1.718 1.718 0 0 0-.905-.234c-.368 0-.691.09-.969.269a1.84 1.84 0 0 0-.652.696c-.152.285-.23.598-.233.939v1.059c0 .444.081.826.243 1.144.163.315.39.557.681.726.292.165.633.248 1.024.248.262 0 .499-.036.711-.109.212-.076.396-.187.552-.333.156-.146.274-.327.353-.542l1.681.189a2.62 2.62 0 0 1-.607 1.163 2.97 2.97 0 0 1-1.133.766c-.461.179-.988.268-1.581.268Zm8.731-7.785v1.392h-4.39v-1.392h4.39Zm-3.306-1.83h1.8v7.169c0 .242.036.428.109.557a.588.588 0 0 0 .298.258c.123.047.259.07.408.07a2.231 2.231 0 0 0 .527-.07l.303 1.407c-.096.034-.234.07-.413.11-.175.04-.391.063-.646.069a2.924 2.924 0 0 1-1.218-.203 1.9 1.9 0 0 1-.86-.706c-.209-.319-.311-.716-.308-1.194v-7.467Zm7.009 9.62c-.484 0-.92-.086-1.308-.258a2.147 2.147 0 0 1-.915-.776c-.222-.341-.333-.762-.333-1.263 0-.431.08-.787.239-1.069.159-.281.376-.507.651-.676.275-.169.585-.296.93-.383a7.503 7.503 0 0 1 1.079-.193c.447-.047.81-.088 1.088-.125.279-.04.481-.099.607-.179.129-.083.194-.21.194-.383v-.029c0-.375-.111-.665-.333-.87-.222-.206-.542-.309-.96-.309-.441 0-.79.096-1.049.289a1.433 1.433 0 0 0-.517.681l-1.68-.239c.132-.464.351-.852.656-1.163.305-.315.678-.55 1.119-.706.44-.159.928-.239 1.461-.239.368 0 .734.043 1.099.129.365.087.698.229.999.428.302.196.544.462.726.8.186.339.278.761.278 1.268V258h-1.73v-1.049h-.059a2.22 2.22 0 0 1-.463.597 2.227 2.227 0 0 1-.74.442 2.997 2.997 0 0 1-1.039.164Zm.467-1.322c.361 0 .674-.072.939-.214.266-.146.469-.338.612-.577.146-.238.219-.499.219-.78v-.9a.87.87 0 0 1-.289.129c-.132.04-.281.075-.447.104-.166.03-.33.057-.492.08l-.423.06a3.118 3.118 0 0 0-.721.179 1.203 1.203 0 0 0-.502.348.85.85 0 0 0-.184.566c0 .332.121.582.363.751.242.169.55.254.925.254Zm7.174-9.014V258h-1.8v-10.182h1.8Zm3.65 5.708V258h-1.799v-10.182h1.759v3.843h.09c.179-.431.456-.77.83-1.019.378-.252.859-.378 1.442-.378.53 0 .993.111 1.387.333.394.222.699.547.915.975.219.427.328.949.328 1.566V258h-1.8v-4.584c0-.514-.132-.913-.397-1.198-.262-.288-.63-.432-1.104-.432a1.74 1.74 0 0 0-.855.208 1.461 1.461 0 0 0-.587.592c-.139.258-.209.572-.209.94Zm10.167 4.623c-.765 0-1.427-.159-1.984-.477a3.238 3.238 0 0 1-1.277-1.362c-.299-.59-.448-1.285-.448-2.083 0-.786.149-1.475.448-2.069a3.382 3.382 0 0 1 1.263-1.392c.54-.334 1.175-.502 1.904-.502.47 0 .914.076 1.332.229.421.149.792.381 1.114.696.325.315.58.716.765 1.203.186.484.279 1.061.279 1.73v.552h-6.259v-1.213h4.534a1.944 1.944 0 0 0-.224-.92 1.627 1.627 0 0 0-.612-.641 1.715 1.715 0 0 0-.904-.234c-.368 0-.692.09-.97.269a1.844 1.844 0 0 0-.651.696 1.992 1.992 0 0 0-.234.939v1.059c0 .444.081.826.244 1.144.162.315.389.557.681.726.292.165.633.248 1.024.248.262 0 .499-.036.711-.109.212-.076.396-.187.552-.333.156-.146.273-.327.353-.542l1.68.189a2.618 2.618 0 0 1-.606 1.163 2.967 2.967 0 0 1-1.134.766c-.461.179-.988.268-1.581.268Zm10.954-5.767-1.641.179a1.308 1.308 0 0 0-.243-.467 1.21 1.21 0 0 0-.458-.353 1.656 1.656 0 0 0-.706-.134c-.374 0-.689.081-.944.243-.252.163-.377.373-.373.632a.658.658 0 0 0 .243.541c.169.14.448.254.836.343l1.302.279c.723.156 1.26.403 1.611.741.355.338.534.78.537 1.327a2.071 2.071 0 0 1-.423 1.273c-.275.364-.658.649-1.148.855-.491.205-1.054.308-1.69.308-.935 0-1.688-.195-2.258-.587-.57-.394-.909-.942-1.019-1.645l1.755-.169c.08.345.249.605.507.78.259.176.595.264 1.01.264.427 0 .77-.088 1.029-.264.261-.175.392-.392.392-.651a.678.678 0 0 0-.253-.542c-.166-.142-.424-.252-.776-.328l-1.302-.273c-.733-.153-1.275-.41-1.626-.771-.351-.365-.525-.825-.522-1.382-.003-.471.124-.878.383-1.223.262-.348.625-.617 1.089-.805.467-.193 1.006-.289 1.615-.289.895 0 1.6.191 2.113.572.517.381.837.896.96 1.546ZM34.04 209.563c-1.19-2.058-3.023-3.533-5.163-4.232a5.624 5.624 0 1 0-5.754 0c-2.14.699-3.974 2.174-5.164 4.232a.623.623 0 0 0 .703.928.632.632 0 0 0 .38-.303c1.471-2.544 4.073-4.063 6.958-4.063s5.487 1.519 6.959 4.063a.64.64 0 0 0 .38.303.625.625 0 0 0 .702-.928ZM21.626 200.5a4.378 4.378 0 0 1 2.7-4.042 4.374 4.374 0 1 1-2.7 4.042ZM52.207 202.111h-1.33a2.033 2.033 0 0 0-.796-1.3 2.223 2.223 0 0 0-.678-.341 2.635 2.635 0 0 0-.788-.115c-.503 0-.953.127-1.35.379-.396.253-.708.624-.938 1.113-.228.488-.341 1.085-.341 1.789 0 .711.113 1.31.34 1.799.23.488.545.858.943 1.108.397.25.845.375 1.342.375.275 0 .537-.037.784-.111.25-.077.476-.189.677-.337a2.039 2.039 0 0 0 .805-1.282l1.33.004a3.549 3.549 0 0 1-.413 1.184 3.263 3.263 0 0 1-.78.929 3.515 3.515 0 0 1-1.082.601c-.406.142-.85.213-1.33.213-.755 0-1.429-.179-2.02-.537-.59-.36-1.056-.876-1.397-1.546-.338-.671-.507-1.471-.507-2.4 0-.931.17-1.731.51-2.399.342-.67.808-1.184 1.399-1.542.59-.361 1.262-.542 2.015-.542.463 0 .895.067 1.296.201.403.13.765.324 1.086.579.321.253.587.563.797.929.21.364.352.78.426 1.249Zm4.23 6.021c-.613 0-1.148-.141-1.606-.422a2.84 2.84 0 0 1-1.065-1.18c-.253-.506-.38-1.097-.38-1.773 0-.679.127-1.273.38-1.781a2.835 2.835 0 0 1 1.065-1.185c.458-.281.993-.422 1.607-.422.613 0 1.149.141 1.606.422.458.281.813.676 1.066 1.185.253.508.379 1.102.379 1.781 0 .676-.126 1.267-.38 1.773a2.84 2.84 0 0 1-1.065 1.18c-.457.281-.992.422-1.606.422Zm.005-1.07c.398 0 .727-.105.989-.315.261-.21.454-.49.58-.839.127-.35.191-.735.191-1.155a3.33 3.33 0 0 0-.192-1.151 1.876 1.876 0 0 0-.58-.848c-.26-.213-.59-.319-.988-.319-.4 0-.733.106-.997.319a1.905 1.905 0 0 0-.584.848c-.125.35-.187.733-.187 1.151 0 .42.062.805.187 1.155.128.349.323.629.584.839.264.21.596.315.997.315Zm4.47.938v-6.545h1.222v1.065h.081c.137-.361.36-.642.67-.844.309-.204.68-.307 1.111-.307.438 0 .804.103 1.1.307.298.205.518.486.66.844h.069c.156-.35.404-.628.745-.835.341-.211.748-.316 1.22-.316.593 0 1.077.186 1.452.559.378.372.567.933.567 1.683V208h-1.274v-4.27c0-.443-.12-.764-.362-.963a1.317 1.317 0 0 0-.865-.298c-.415 0-.738.128-.968.383-.23.253-.345.578-.345.976V208h-1.27v-4.351c0-.355-.11-.64-.332-.856-.222-.216-.51-.324-.865-.324-.242 0-.465.064-.67.192a1.403 1.403 0 0 0-.49.524 1.602 1.602 0 0 0-.183.779V208h-1.274Zm13.426.132c-.645 0-1.2-.138-1.666-.413a2.807 2.807 0 0 1-1.074-1.172c-.25-.506-.375-1.098-.375-1.777 0-.671.125-1.261.375-1.773.252-.511.605-.91 1.056-1.197.455-.287.986-.431 1.594-.431.37 0 .727.061 1.074.184.347.122.658.313.933.575.276.261.493.601.652 1.018.16.415.239.919.239 1.513v.452h-5.203v-.955h3.954c0-.335-.068-.632-.204-.89a1.538 1.538 0 0 0-.575-.618 1.604 1.604 0 0 0-.861-.226c-.358 0-.67.088-.938.264a1.774 1.774 0 0 0-.613.682 1.968 1.968 0 0 0-.213.908v.745c0 .438.076.81.23 1.117.156.307.373.541.652.703.278.159.603.239.975.239.242 0 .462-.035.661-.103a1.366 1.366 0 0 0 .848-.831l1.206.218c-.097.355-.27.666-.52.933-.247.264-.558.47-.933.618a3.49 3.49 0 0 1-1.274.217Zm6.672-.004c-.529 0-1-.135-1.415-.405-.412-.273-.736-.661-.971-1.163-.233-.506-.35-1.113-.35-1.82 0-.707.118-1.312.354-1.815.239-.503.565-.888.98-1.155a2.55 2.55 0 0 1 1.41-.401c.407 0 .733.069.98.205.25.133.444.29.58.469.14.179.247.336.324.473h.077v-3.243h1.274V208h-1.245v-1.018h-.106a3.383 3.383 0 0 1-.332.477 1.853 1.853 0 0 1-.588.469c-.25.133-.574.2-.972.2Zm.281-1.087c.367 0 .676-.096.93-.29.255-.196.448-.467.579-.813.133-.347.2-.751.2-1.211 0-.454-.065-.852-.196-1.193a1.757 1.757 0 0 0-.575-.797c-.253-.19-.566-.285-.938-.285-.383 0-.703.099-.959.298-.255.199-.448.47-.58.814a3.319 3.319 0 0 0-.19 1.163c0 .438.064.831.195 1.181.13.349.324.626.58.831.258.201.576.302.954.302Zm7.538 1.091c-.614 0-1.15-.141-1.607-.422a2.84 2.84 0 0 1-1.065-1.18c-.253-.506-.38-1.097-.38-1.773 0-.679.127-1.273.38-1.781a2.836 2.836 0 0 1 1.065-1.185c.457-.281.993-.422 1.607-.422.613 0 1.149.141 1.606.422.457.281.813.676 1.065 1.185.253.508.38 1.102.38 1.781 0 .676-.127 1.267-.38 1.773a2.84 2.84 0 0 1-1.065 1.18c-.457.281-.993.422-1.606.422Zm.004-1.07c.398 0 .727-.105.988-.315.262-.21.455-.49.58-.839.128-.35.192-.735.192-1.155 0-.418-.064-.801-.192-1.151a1.876 1.876 0 0 0-.58-.848c-.261-.213-.59-.319-.988-.319-.4 0-.733.106-.997.319a1.905 1.905 0 0 0-.584.848c-.125.35-.188.733-.188 1.151 0 .42.063.805.188 1.155.128.349.322.629.584.839.264.21.596.315.997.315Zm8.615-1.776v-3.831h1.279V208h-1.253v-1.134h-.069a2.04 2.04 0 0 1-.724.874c-.33.23-.74.345-1.231.345a2.21 2.21 0 0 1-1.117-.277 1.94 1.94 0 0 1-.758-.831c-.182-.366-.273-.819-.273-1.359v-4.163h1.274v4.009c0 .447.124.802.37 1.066.248.264.569.396.964.396.238 0 .476-.06.711-.179a1.5 1.5 0 0 0 .593-.541c.159-.242.237-.548.234-.92ZM100.44 208v-6.545h1.231v1.039h.068c.12-.352.33-.629.631-.831a1.809 1.809 0 0 1 1.031-.306 5.012 5.012 0 0 1 .541.029v1.219a2.312 2.312 0 0 0-.272-.047 2.597 2.597 0 0 0-.392-.03c-.302 0-.57.064-.806.192a1.423 1.423 0 0 0-.758 1.283V208h-1.274Zm7.128.132c-.614 0-1.149-.141-1.607-.422a2.843 2.843 0 0 1-1.065-1.18c-.253-.506-.379-1.097-.379-1.773 0-.679.126-1.273.379-1.781a2.839 2.839 0 0 1 1.065-1.185c.458-.281.993-.422 1.607-.422.613 0 1.149.141 1.606.422.458.281.813.676 1.066 1.185.252.508.379 1.102.379 1.781 0 .676-.127 1.267-.379 1.773a2.839 2.839 0 0 1-1.066 1.18c-.457.281-.993.422-1.606.422Zm.004-1.07c.398 0 .727-.105.989-.315.261-.21.454-.49.579-.839a3.34 3.34 0 0 0 .192-1.155c0-.418-.064-.801-.192-1.151a1.877 1.877 0 0 0-.579-.848c-.262-.213-.591-.319-.989-.319-.401 0-.733.106-.997.319a1.91 1.91 0 0 0-.584.848c-.125.35-.187.733-.187 1.151 0 .42.062.805.187 1.155.128.349.323.629.584.839.264.21.596.315.997.315Zm10.095 1.066c-.528 0-1-.135-1.415-.405-.412-.273-.735-.661-.971-1.163-.233-.506-.35-1.113-.35-1.82 0-.707.118-1.312.354-1.815.239-.503.565-.888.98-1.155a2.55 2.55 0 0 1 1.411-.401c.406 0 .733.069.98.205.25.133.443.29.579.469.14.179.248.336.324.473h.077v-3.243h1.274V208h-1.244v-1.018h-.107a3.31 3.31 0 0 1-.332.477 1.853 1.853 0 0 1-.588.469c-.25.133-.574.2-.972.2Zm.281-1.087c.367 0 .677-.096.929-.29.256-.196.449-.467.58-.813.133-.347.2-.751.2-1.211 0-.454-.065-.852-.196-1.193a1.75 1.75 0 0 0-.575-.797c-.253-.19-.565-.285-.938-.285-.383 0-.703.099-.958.298-.256.199-.449.47-.58.814a3.314 3.314 0 0 0-.192 1.163c0 .438.066.831.196 1.181.131.349.324.626.58.831.258.201.577.302.954.302Zm7.602 1.091c-.645 0-1.201-.138-1.667-.413a2.8 2.8 0 0 1-1.073-1.172c-.25-.506-.375-1.098-.375-1.777 0-.671.125-1.261.375-1.773a2.91 2.91 0 0 1 1.056-1.197c.455-.287.986-.431 1.594-.431.369 0 .727.061 1.074.184.347.122.658.313.933.575.276.261.493.601.652 1.018.159.415.239.919.239 1.513v.452h-5.203v-.955h3.954c0-.335-.068-.632-.204-.89a1.54 1.54 0 0 0-.576-.618 1.601 1.601 0 0 0-.86-.226c-.358 0-.671.088-.938.264a1.766 1.766 0 0 0-.613.682 1.969 1.969 0 0 0-.214.908v.745c0 .438.077.81.231 1.117.156.307.373.541.652.703.278.159.603.239.975.239.242 0 .462-.035.661-.103a1.43 1.43 0 0 0 .516-.315 1.38 1.38 0 0 0 .332-.516l1.206.218c-.097.355-.27.666-.52.933-.247.264-.558.47-.933.618a3.49 3.49 0 0 1-1.274.217Zm7.5-.132v-8.727h1.316v3.792h4.351v-3.792h1.321V208h-1.321v-3.805h-4.351V208h-1.316Zm10.708.145c-.414 0-.789-.077-1.125-.23a1.89 1.89 0 0 1-.796-.678c-.194-.295-.29-.657-.29-1.086 0-.37.071-.674.213-.912.142-.239.334-.428.575-.567.242-.139.512-.244.81-.315.298-.071.602-.125.912-.162l.954-.111c.245-.031.422-.081.533-.149.111-.069.166-.179.166-.333v-.03c0-.372-.105-.66-.315-.865-.208-.204-.517-.306-.929-.306-.429 0-.767.095-1.014.285-.245.188-.414.396-.507.626l-1.198-.272c.142-.398.35-.719.622-.963.276-.247.593-.426.951-.537a3.692 3.692 0 0 1 1.129-.171c.261 0 .538.032.831.094.295.06.571.171.826.332.259.162.471.394.635.695.165.298.248.686.248 1.163V208h-1.245v-.895h-.051a1.798 1.798 0 0 1-.371.486 1.956 1.956 0 0 1-.635.396 2.463 2.463 0 0 1-.929.158Zm.277-1.023c.353 0 .654-.069.904-.209.253-.139.444-.321.575-.545.134-.227.2-.47.2-.729v-.844c-.045.046-.133.089-.264.128-.128.037-.274.07-.439.098-.164.026-.325.05-.481.073l-.392.051a3.148 3.148 0 0 0-.678.158 1.16 1.16 0 0 0-.486.319c-.119.137-.179.318-.179.546 0 .315.117.554.35.716.233.159.53.238.89.238Zm4.651.878v-6.545h1.231v1.039h.068c.12-.352.33-.629.631-.831a1.809 1.809 0 0 1 1.031-.306 5.07 5.07 0 0 1 .542.029v1.219a2.382 2.382 0 0 0-.273-.047 2.597 2.597 0 0 0-.392-.03c-.301 0-.57.064-.806.192a1.423 1.423 0 0 0-.758 1.283V208h-1.274Zm4.605 0v-6.545h1.232v1.039h.068a1.58 1.58 0 0 1 .631-.831 1.806 1.806 0 0 1 1.031-.306 5.063 5.063 0 0 1 .541.029v1.219a2.3 2.3 0 0 0-.273-.047c-.13-.02-.261-.03-.392-.03a1.66 1.66 0 0 0-.805.192 1.425 1.425 0 0 0-.759 1.283V208h-1.274Zm5.61 2.455c-.19 0-.363-.016-.52-.047a1.68 1.68 0 0 1-.349-.094l.307-1.044c.233.062.44.089.622.081a.745.745 0 0 0 .481-.205c.142-.128.267-.336.375-.626l.158-.435-2.395-6.63h1.364l1.657 5.079h.069l1.657-5.079h1.368l-2.697 7.419c-.125.34-.284.629-.477.865a1.876 1.876 0 0 1-.691.537 2.264 2.264 0 0 1-.929.179Z" fill="#64748B"/><g clip-path="url(#a)"><path d="M22.875 169.75v-2.5a.624.624 0 1 1 1.25 0v2.5a.624.624 0 1 1-1.25 0Zm3.125.625a.626.626 0 0 0 .625-.625v-2.5a.624.624 0 1 0-1.25 0v2.5a.624.624 0 0 0 .625.625Zm2.5 0a.626.626 0 0 0 .625-.625v-2.5a.624.624 0 1 0-1.25 0v2.5a.624.624 0 0 0 .625.625ZM35.75 174l-2.25 1.688v4.687a2.501 2.501 0 0 1-2.5 2.5H21a2.5 2.5 0 0 1-2.5-2.5v-4.687L16.25 174a.625.625 0 0 1 .75-1l1.5 1.125v-1.25a1.25 1.25 0 0 1 1.25-1.25h12.5a1.252 1.252 0 0 1 1.25 1.25v1.25L35 173a.626.626 0 0 1 .75 1Zm-3.5-1.125h-12.5v7.5a1.25 1.25 0 0 0 1.25 1.25h10a1.252 1.252 0 0 0 1.25-1.25v-7.5Z" fill="#64748B"/></g><path d="M52.207 175.111h-1.33a2.033 2.033 0 0 0-.796-1.3 2.223 2.223 0 0 0-.678-.341 2.635 2.635 0 0 0-.788-.115c-.503 0-.953.127-1.35.379-.396.253-.708.624-.938 1.113-.228.488-.341 1.085-.341 1.789 0 .711.113 1.31.34 1.799.23.488.545.858.943 1.108.397.25.845.375 1.342.375.275 0 .537-.037.784-.111.25-.077.476-.189.677-.337a2.039 2.039 0 0 0 .805-1.282l1.33.004a3.549 3.549 0 0 1-.413 1.184 3.263 3.263 0 0 1-.78.929 3.515 3.515 0 0 1-1.082.601c-.406.142-.85.213-1.33.213-.755 0-1.429-.179-2.02-.537-.59-.36-1.056-.876-1.397-1.546-.338-.671-.507-1.471-.507-2.4 0-.931.17-1.731.51-2.399.342-.67.808-1.184 1.399-1.542.59-.361 1.262-.542 2.015-.542.463 0 .895.067 1.296.201.403.13.765.324 1.086.579.321.253.587.563.797.929.21.364.352.78.426 1.249Zm4.23 6.021c-.613 0-1.148-.141-1.606-.422a2.84 2.84 0 0 1-1.065-1.18c-.253-.506-.38-1.097-.38-1.773 0-.679.127-1.273.38-1.781a2.835 2.835 0 0 1 1.065-1.185c.458-.281.993-.422 1.607-.422.613 0 1.149.141 1.606.422.458.281.813.676 1.066 1.185.253.508.379 1.102.379 1.781 0 .676-.126 1.267-.38 1.773a2.84 2.84 0 0 1-1.065 1.18c-.457.281-.992.422-1.606.422Zm.005-1.07c.398 0 .727-.105.989-.315.261-.21.454-.49.58-.839.127-.35.191-.735.191-1.155a3.33 3.33 0 0 0-.192-1.151 1.876 1.876 0 0 0-.58-.848c-.26-.213-.59-.319-.988-.319-.4 0-.733.106-.997.319a1.905 1.905 0 0 0-.584.848c-.125.35-.187.733-.187 1.151 0 .42.062.805.187 1.155.128.349.323.629.584.839.264.21.596.315.997.315Zm4.47.938v-6.545h1.222v1.065h.081c.137-.361.36-.642.67-.844.309-.204.68-.307 1.111-.307.438 0 .804.103 1.1.307.298.205.518.486.66.844h.069c.156-.35.404-.628.745-.835.341-.211.748-.316 1.22-.316.593 0 1.077.186 1.452.559.378.372.567.933.567 1.683V181h-1.274v-4.27c0-.443-.12-.764-.362-.963a1.317 1.317 0 0 0-.865-.298c-.415 0-.738.128-.968.383-.23.253-.345.578-.345.976V181h-1.27v-4.351c0-.355-.11-.64-.332-.856-.222-.216-.51-.324-.865-.324-.242 0-.465.064-.67.192a1.403 1.403 0 0 0-.49.524 1.602 1.602 0 0 0-.183.779V181h-1.274Zm10.605 0v-6.545h1.274V181h-1.274Zm.643-7.555a.81.81 0 0 1-.57-.222.722.722 0 0 1-.235-.537c0-.21.078-.389.234-.537.16-.15.35-.226.571-.226a.79.79 0 0 1 .567.226c.159.148.239.327.239.537 0 .207-.08.386-.24.537a.794.794 0 0 1-.566.222Zm4.795 7.683c-.528 0-1-.135-1.415-.405-.411-.273-.735-.661-.971-1.163-.233-.506-.35-1.113-.35-1.82 0-.707.118-1.312.354-1.815.239-.503.566-.888.98-1.155a2.55 2.55 0 0 1 1.41-.401c.407 0 .734.069.98.205.25.133.444.29.58.469.14.179.248.336.324.473h.077v-3.243h1.274V181h-1.244v-1.018h-.107a3.383 3.383 0 0 1-.332.477 1.853 1.853 0 0 1-.588.469c-.25.133-.574.2-.972.2Zm.282-1.087c.366 0 .676-.096.928-.29.256-.196.45-.467.58-.813.134-.347.2-.751.2-1.211 0-.454-.065-.852-.196-1.193a1.757 1.757 0 0 0-.575-.797c-.253-.19-.565-.285-.938-.285-.383 0-.703.099-.958.298-.256.199-.45.47-.58.814a3.316 3.316 0 0 0-.192 1.163c0 .438.066.831.196 1.181.131.349.324.626.58.831.258.201.577.302.955.302Zm6.684 1.104c-.414 0-.79-.077-1.125-.23a1.891 1.891 0 0 1-.796-.678c-.194-.295-.29-.657-.29-1.086 0-.37.07-.674.213-.912.142-.239.334-.428.575-.567a3.01 3.01 0 0 1 .81-.315c.298-.071.602-.125.912-.162l.954-.111c.245-.031.422-.081.533-.149.11-.069.166-.179.166-.333v-.03c0-.372-.105-.66-.315-.865-.208-.204-.517-.306-.93-.306-.428 0-.766.095-1.013.285-.245.188-.414.396-.507.626l-1.198-.272c.142-.398.35-.719.622-.963.276-.247.593-.426.95-.537a3.7 3.7 0 0 1 1.13-.171c.261 0 .538.032.83.094.296.06.572.171.828.332.258.162.47.394.635.695.164.298.247.686.247 1.163V181h-1.245v-.895h-.05a1.809 1.809 0 0 1-.372.486 1.968 1.968 0 0 1-.635.396 2.465 2.465 0 0 1-.928.158Zm.277-1.023c.353 0 .654-.069.904-.209.253-.139.444-.321.575-.545.134-.227.2-.47.2-.729v-.844a.647.647 0 0 1-.264.128c-.128.037-.274.07-.439.098-.164.026-.325.05-.481.073l-.392.051a3.136 3.136 0 0 0-.678.158c-.202.073-.363.18-.486.319-.119.137-.178.318-.178.546 0 .315.116.554.349.716.233.159.53.238.89.238Zm7.827 3.333v-9h1.244v1.061h.106c.074-.137.18-.294.32-.473a1.8 1.8 0 0 1 .58-.469c.247-.136.573-.205.98-.205.528 0 1 .134 1.414.401.415.267.74.652.976 1.155.239.503.358 1.108.358 1.815 0 .707-.118 1.314-.353 1.82-.236.502-.56.89-.972 1.163-.412.27-.882.405-1.41.405-.398 0-.724-.067-.977-.2a1.853 1.853 0 0 1-.587-.469 3.556 3.556 0 0 1-.329-.477H93.3v3.473h-1.275Zm1.248-5.728c0 .46.067.864.2 1.211.134.346.327.617.58.813.253.194.562.29.929.29.38 0 .699-.101.954-.302.256-.205.45-.482.58-.831.133-.35.2-.743.2-1.181 0-.432-.065-.819-.196-1.163a1.78 1.78 0 0 0-.58-.814c-.255-.199-.575-.298-.958-.298-.37 0-.682.095-.938.285a1.756 1.756 0 0 0-.575.797c-.13.341-.196.739-.196 1.193Zm8.063 3.418c-.415 0-.79-.077-1.125-.23a1.89 1.89 0 0 1-.797-.678c-.194-.295-.29-.657-.29-1.086 0-.37.071-.674.213-.912.142-.239.334-.428.575-.567.242-.139.512-.244.81-.315.298-.071.602-.125.912-.162l.954-.111c.245-.031.422-.081.533-.149.111-.069.166-.179.166-.333v-.03c0-.372-.105-.66-.315-.865-.207-.204-.517-.306-.929-.306-.429 0-.767.095-1.014.285-.245.188-.414.396-.507.626l-1.198-.272a2.3 2.3 0 0 1 .622-.963 2.53 2.53 0 0 1 .951-.537 3.697 3.697 0 0 1 1.129-.171c.261 0 .538.032.831.094.295.06.571.171.827.332.258.162.47.394.635.695.164.298.247.686.247 1.163V181h-1.245v-.895h-.051a1.813 1.813 0 0 1-.37.486 1.977 1.977 0 0 1-.635.396 2.47 2.47 0 0 1-.929.158Zm.277-1.023c.352 0 .653-.069.903-.209.253-.139.445-.321.575-.545a1.41 1.41 0 0 0 .201-.729v-.844a.652.652 0 0 1-.265.128c-.127.037-.274.07-.439.098-.164.026-.325.05-.481.073l-.392.051a3.148 3.148 0 0 0-.678.158c-.201.073-.363.18-.486.319-.119.137-.178.318-.178.546 0 .315.116.554.349.716.233.159.53.238.891.238Zm4.65.878v-6.545h1.231v1.039h.068c.12-.352.33-.629.631-.831a1.809 1.809 0 0 1 1.031-.306 5.07 5.07 0 0 1 .542.029v1.219a2.34 2.34 0 0 0-.273-.047 2.587 2.587 0 0 0-.392-.03c-.301 0-.57.064-.806.192a1.423 1.423 0 0 0-.758 1.283V181h-1.274Zm6.451.145c-.414 0-.789-.077-1.125-.23a1.89 1.89 0 0 1-.796-.678c-.194-.295-.29-.657-.29-1.086 0-.37.071-.674.213-.912.142-.239.334-.428.575-.567.242-.139.512-.244.81-.315.298-.071.602-.125.912-.162l.954-.111c.245-.031.422-.081.533-.149.111-.069.166-.179.166-.333v-.03c0-.372-.105-.66-.315-.865-.208-.204-.517-.306-.929-.306-.429 0-.767.095-1.014.285-.245.188-.414.396-.507.626l-1.198-.272c.142-.398.35-.719.622-.963.276-.247.593-.426.951-.537a3.697 3.697 0 0 1 1.129-.171c.261 0 .538.032.831.094.295.06.571.171.826.332.259.162.471.394.635.695.165.298.248.686.248 1.163V181H114.7v-.895h-.051a1.798 1.798 0 0 1-.371.486 1.956 1.956 0 0 1-.635.396 2.463 2.463 0 0 1-.929.158Zm.277-1.023c.353 0 .654-.069.904-.209.253-.139.444-.321.575-.545.134-.227.2-.47.2-.729v-.844c-.045.046-.133.089-.264.128-.128.037-.274.07-.439.098-.164.026-.325.05-.481.073l-.392.051a3.148 3.148 0 0 0-.678.158 1.16 1.16 0 0 0-.486.319c-.119.137-.179.318-.179.546 0 .315.117.554.35.716.233.159.53.238.89.238Zm10.571 3.469c-.52 0-.968-.068-1.343-.205a2.576 2.576 0 0 1-.911-.541 2.274 2.274 0 0 1-.529-.737l1.095-.452c.077.125.179.257.307.397.131.142.307.262.529.362.224.099.512.149.865.149.483 0 .882-.118 1.197-.354.315-.233.473-.605.473-1.116v-1.287h-.081a2.898 2.898 0 0 1-.332.464 1.789 1.789 0 0 1-.588.443c-.25.125-.576.188-.976.188-.517 0-.983-.121-1.398-.362-.412-.245-.739-.604-.98-1.078-.239-.478-.358-1.064-.358-1.76s.118-1.293.354-1.79c.238-.497.565-.878.98-1.142a2.55 2.55 0 0 1 1.41-.401c.407 0 .735.069.985.205.25.133.444.29.583.469.143.179.252.336.329.473h.093v-1.061h1.249v6.69c0 .562-.131 1.024-.392 1.385a2.3 2.3 0 0 1-1.061.801c-.443.173-.943.26-1.5.26Zm-.013-3.746c.366 0 .676-.085.929-.256a1.59 1.59 0 0 0 .58-.741c.133-.324.2-.712.2-1.163 0-.441-.066-.828-.196-1.164a1.74 1.74 0 0 0-.575-.784c-.253-.19-.566-.285-.938-.285-.384 0-.703.099-.959.298a1.798 1.798 0 0 0-.579.801 3.181 3.181 0 0 0-.192 1.134c0 .429.065.805.196 1.129.131.324.324.577.579.758.259.182.577.273.955.273Zm6.58 1.3c-.415 0-.79-.077-1.125-.23a1.886 1.886 0 0 1-.797-.678c-.194-.295-.29-.657-.29-1.086 0-.37.071-.674.213-.912.142-.239.334-.428.575-.567.242-.139.512-.244.81-.315.298-.071.602-.125.912-.162l.954-.111c.245-.031.422-.081.533-.149.111-.069.166-.179.166-.333v-.03c0-.372-.105-.66-.315-.865-.207-.204-.517-.306-.929-.306-.429 0-.767.095-1.014.285-.245.188-.414.396-.507.626l-1.198-.272c.142-.398.35-.719.622-.963.276-.247.593-.426.951-.537a3.697 3.697 0 0 1 1.129-.171c.261 0 .538.032.831.094.295.06.571.171.827.332.258.162.47.394.635.695.164.298.247.686.247 1.163V181h-1.245v-.895h-.051a1.798 1.798 0 0 1-.371.486 1.961 1.961 0 0 1-.634.396 2.47 2.47 0 0 1-.929.158Zm.277-1.023c.352 0 .653-.069.903-.209.253-.139.445-.321.575-.545a1.41 1.41 0 0 0 .201-.729v-.844a.652.652 0 0 1-.265.128c-.128.037-.274.07-.439.098-.164.026-.325.05-.481.073l-.392.051a3.148 3.148 0 0 0-.678.158c-.201.073-.363.18-.486.319-.119.137-.179.318-.179.546 0 .315.117.554.35.716.233.159.53.238.891.238Zm7.705-5.667v1.022h-3.575v-1.022h3.575Zm-2.616-1.569h1.274v6.192c0 .247.037.433.111.558a.575.575 0 0 0 .285.252c.119.042.249.064.388.064.102 0 .192-.007.268-.022a6.69 6.69 0 0 0 .179-.034l.23 1.053a2.523 2.523 0 0 1-.826.136 2.242 2.242 0 0 1-.938-.179 1.608 1.608 0 0 1-.703-.579c-.179-.262-.268-.59-.268-.985v-6.456Zm6.712 8.246c-.613 0-1.149-.141-1.606-.422a2.83 2.83 0 0 1-1.065-1.18c-.253-.506-.38-1.097-.38-1.773 0-.679.127-1.273.38-1.781a2.825 2.825 0 0 1 1.065-1.185c.457-.281.993-.422 1.606-.422.614 0 1.15.141 1.607.422.457.281.812.676 1.065 1.185.253.508.38 1.102.38 1.781 0 .676-.127 1.267-.38 1.773a2.843 2.843 0 0 1-1.065 1.18c-.457.281-.993.422-1.607.422Zm.005-1.07c.397 0 .727-.105.988-.315.262-.21.455-.49.58-.839a3.34 3.34 0 0 0 .192-1.155c0-.418-.064-.801-.192-1.151a1.871 1.871 0 0 0-.58-.848c-.261-.213-.591-.319-.988-.319-.401 0-.733.106-.998.319a1.908 1.908 0 0 0-.583.848c-.125.35-.188.733-.188 1.151 0 .42.063.805.188 1.155.128.349.322.629.583.839.265.21.597.315.998.315Zm9.374-4.009-1.155.204a1.388 1.388 0 0 0-.23-.422 1.15 1.15 0 0 0-.418-.328 1.513 1.513 0 0 0-.66-.128c-.361 0-.662.081-.904.243-.241.159-.362.365-.362.618a.65.65 0 0 0 .243.528c.162.134.423.243.784.329l1.04.238c.602.139 1.051.354 1.346.644.296.289.443.666.443 1.129 0 .392-.113.741-.34 1.048-.225.304-.539.543-.942.716-.401.173-.865.26-1.394.26-.733 0-1.331-.156-1.794-.469-.463-.315-.747-.762-.852-1.342l1.232-.187c.076.321.234.563.473.728.238.162.549.243.933.243.417 0 .751-.087 1.001-.26.25-.176.375-.39.375-.643a.67.67 0 0 0-.23-.516c-.15-.139-.382-.244-.695-.315l-1.107-.243c-.611-.139-1.063-.361-1.356-.665-.289-.304-.434-.689-.434-1.155 0-.386.108-.724.324-1.014.216-.29.514-.516.894-.678a3.282 3.282 0 0 1 1.309-.247c.707 0 1.264.154 1.67.461.406.304.675.711.806 1.223Zm8.561.029v1.108h-3.87v-1.108h3.87Zm12.224-.971h-1.329a2.018 2.018 0 0 0-.797-1.3 2.228 2.228 0 0 0-.678-.341 2.63 2.63 0 0 0-.788-.115c-.503 0-.953.127-1.351.379-.395.253-.707.624-.937 1.113-.228.488-.341 1.085-.341 1.789 0 .711.113 1.31.341 1.799.23.488.544.858.942 1.108.397.25.845.375 1.342.375.275 0 .537-.037.784-.111.25-.077.476-.189.678-.337a2.043 2.043 0 0 0 .805-1.282l1.329.004a3.54 3.54 0 0 1-.413 1.184 3.272 3.272 0 0 1-.78.929 3.513 3.513 0 0 1-1.082.601c-.406.142-.85.213-1.33.213-.755 0-1.429-.179-2.02-.537-.59-.36-1.056-.876-1.397-1.546-.338-.671-.507-1.471-.507-2.4 0-.931.17-1.731.511-2.399.341-.67.807-1.184 1.398-1.542.591-.361 1.262-.542 2.015-.542.463 0 .895.067 1.296.201.403.13.765.324 1.086.579.321.253.587.563.797.929.211.364.353.78.426 1.249Zm4.231 6.021c-.614 0-1.149-.141-1.607-.422a2.843 2.843 0 0 1-1.065-1.18c-.253-.506-.379-1.097-.379-1.773 0-.679.126-1.273.379-1.781a2.839 2.839 0 0 1 1.065-1.185c.458-.281.993-.422 1.607-.422s1.149.141 1.606.422c.458.281.813.676 1.066 1.185.253.508.379 1.102.379 1.781 0 .676-.126 1.267-.379 1.773a2.839 2.839 0 0 1-1.066 1.18c-.457.281-.992.422-1.606.422Zm.004-1.07c.398 0 .727-.105.989-.315.261-.21.454-.49.579-.839a3.34 3.34 0 0 0 .192-1.155c0-.418-.064-.801-.192-1.151a1.877 1.877 0 0 0-.579-.848c-.262-.213-.591-.319-.989-.319-.4 0-.733.106-.997.319a1.91 1.91 0 0 0-.584.848c-.125.35-.187.733-.187 1.151 0 .42.062.805.187 1.155.128.349.323.629.584.839.264.21.597.315.997.315Zm4.469.938v-6.545h1.223v1.065h.081c.137-.361.36-.642.669-.844.31-.204.681-.307 1.113-.307.437 0 .803.103 1.099.307.298.205.518.486.66.844h.069c.156-.35.404-.628.745-.835.341-.211.748-.316 1.219-.316.594 0 1.078.186 1.453.559.378.372.567.933.567 1.683V181h-1.274v-4.27c0-.443-.121-.764-.362-.963a1.318 1.318 0 0 0-.865-.298c-.415 0-.738.128-.968.383-.23.253-.345.578-.345.976V181h-1.27v-4.351c0-.355-.111-.64-.332-.856-.222-.216-.51-.324-.865-.324-.242 0-.465.064-.669.192a1.4 1.4 0 0 0-.49.524 1.604 1.604 0 0 0-.184.779V181h-1.274Zm10.606 0v-6.545h1.274V181h-1.274Zm.643-7.555a.81.81 0 0 1-.571-.222.722.722 0 0 1-.234-.537c0-.21.078-.389.234-.537a.805.805 0 0 1 .571-.226c.222 0 .411.076.567.226a.707.707 0 0 1 .239.537c0 .207-.08.386-.239.537a.794.794 0 0 1-.567.222Zm4.795 7.683c-.528 0-1-.135-1.414-.405-.412-.273-.736-.661-.972-1.163-.233-.506-.349-1.113-.349-1.82 0-.707.117-1.312.353-1.815.239-.503.566-.888.98-1.155a2.55 2.55 0 0 1 1.411-.401c.406 0 .733.069.98.205.25.133.443.29.58.469.139.179.247.336.323.473h.077v-3.243h1.274V181h-1.244v-1.018h-.107a3.31 3.31 0 0 1-.332.477 1.853 1.853 0 0 1-.588.469c-.25.133-.574.2-.972.2Zm.282-1.087c.366 0 .676-.096.929-.29.255-.196.448-.467.579-.813.134-.347.2-.751.2-1.211 0-.454-.065-.852-.196-1.193a1.75 1.75 0 0 0-.575-.797c-.253-.19-.565-.285-.937-.285-.384 0-.704.099-.959.298-.256.199-.449.47-.58.814a3.314 3.314 0 0 0-.192 1.163c0 .438.066.831.196 1.181.131.349.324.626.58.831.259.201.577.302.955.302Zm6.685 1.104c-.415 0-.79-.077-1.125-.23a1.886 1.886 0 0 1-.797-.678c-.193-.295-.29-.657-.29-1.086 0-.37.071-.674.213-.912.142-.239.334-.428.575-.567.242-.139.512-.244.81-.315.298-.071.602-.125.912-.162l.954-.111c.245-.031.422-.081.533-.149.111-.069.166-.179.166-.333v-.03c0-.372-.105-.66-.315-.865-.207-.204-.517-.306-.929-.306-.429 0-.767.095-1.014.285-.245.188-.414.396-.507.626l-1.198-.272c.142-.398.35-.719.622-.963.276-.247.593-.426.951-.537a3.697 3.697 0 0 1 1.129-.171c.261 0 .538.032.831.094.295.06.571.171.827.332.258.162.47.394.635.695.164.298.247.686.247 1.163V181h-1.245v-.895h-.051a1.813 1.813 0 0 1-.37.486 1.977 1.977 0 0 1-.635.396 2.47 2.47 0 0 1-.929.158Zm.277-1.023c.352 0 .653-.069.903-.209.253-.139.445-.321.575-.545a1.41 1.41 0 0 0 .201-.729v-.844a.652.652 0 0 1-.265.128c-.127.037-.274.07-.439.098-.164.026-.325.05-.481.073l-.392.051a3.148 3.148 0 0 0-.678.158c-.201.073-.363.18-.486.319-.119.137-.178.318-.178.546 0 .315.116.554.349.716.233.159.53.238.891.238Zm7.826 3.333v-9h1.244v1.061h.106c.074-.137.181-.294.32-.473s.332-.336.58-.469c.247-.136.573-.205.98-.205.528 0 1 .134 1.414.401.415.267.741.652.976 1.155.239.503.358 1.108.358 1.815 0 .707-.118 1.314-.353 1.82-.236.502-.56.89-.972 1.163-.412.27-.882.405-1.411.405-.397 0-.723-.067-.975-.2a1.853 1.853 0 0 1-.588-.469 3.516 3.516 0 0 1-.329-.477h-.076v3.473h-1.274Zm1.248-5.728c0 .46.067.864.2 1.211.134.346.327.617.58.813.253.194.562.29.929.29.381 0 .699-.101.954-.302.256-.205.449-.482.58-.831.134-.35.2-.743.2-1.181 0-.432-.065-.819-.196-1.163a1.785 1.785 0 0 0-.579-.814c-.256-.199-.576-.298-.959-.298-.369 0-.682.095-.938.285a1.764 1.764 0 0 0-.575.797 3.319 3.319 0 0 0-.196 1.193Zm8.063 3.418c-.415 0-.79-.077-1.125-.23a1.886 1.886 0 0 1-.797-.678c-.193-.295-.29-.657-.29-1.086 0-.37.071-.674.213-.912.142-.239.334-.428.575-.567.242-.139.512-.244.81-.315.298-.071.602-.125.912-.162l.954-.111c.245-.031.422-.081.533-.149.111-.069.166-.179.166-.333v-.03c0-.372-.105-.66-.315-.865-.207-.204-.517-.306-.929-.306-.429 0-.767.095-1.014.285-.244.188-.414.396-.507.626l-1.198-.272c.142-.398.35-.719.622-.963.276-.247.593-.426.951-.537a3.697 3.697 0 0 1 1.129-.171c.261 0 .538.032.831.094.295.06.571.171.827.332.258.162.47.394.635.695.164.298.247.686.247 1.163V181h-1.245v-.895h-.051a1.813 1.813 0 0 1-.37.486 1.977 1.977 0 0 1-.635.396 2.47 2.47 0 0 1-.929.158Zm.277-1.023c.352 0 .653-.069.903-.209.253-.139.445-.321.575-.545a1.41 1.41 0 0 0 .201-.729v-.844a.652.652 0 0 1-.265.128c-.127.037-.274.07-.439.098-.164.026-.325.05-.481.073l-.392.051a3.148 3.148 0 0 0-.678.158c-.201.073-.363.18-.485.319-.12.137-.179.318-.179.546 0 .315.116.554.349.716.233.159.53.238.891.238Zm4.65.878v-6.545h1.231v1.039h.069c.119-.352.329-.629.63-.831a1.809 1.809 0 0 1 1.031-.306 5.07 5.07 0 0 1 .542.029v1.219a2.3 2.3 0 0 0-.273-.047 2.587 2.587 0 0 0-.392-.03c-.301 0-.57.064-.805.192a1.425 1.425 0 0 0-.759 1.283V181h-1.274Zm6.452.145c-.415 0-.79-.077-1.125-.23a1.886 1.886 0 0 1-.797-.678c-.194-.295-.29-.657-.29-1.086 0-.37.071-.674.213-.912.142-.239.334-.428.575-.567.242-.139.512-.244.81-.315.298-.071.602-.125.912-.162l.954-.111c.245-.031.422-.081.533-.149.111-.069.166-.179.166-.333v-.03c0-.372-.105-.66-.315-.865-.207-.204-.517-.306-.929-.306-.429 0-.767.095-1.014.285-.245.188-.414.396-.507.626l-1.198-.272c.142-.398.35-.719.622-.963.276-.247.593-.426.951-.537a3.697 3.697 0 0 1 1.129-.171c.261 0 .538.032.831.094.295.06.571.171.827.332.258.162.47.394.635.695.164.298.247.686.247 1.163V181h-1.245v-.895h-.051a1.798 1.798 0 0 1-.371.486 1.961 1.961 0 0 1-.634.396 2.47 2.47 0 0 1-.929.158Zm.277-1.023c.352 0 .653-.069.903-.209.253-.139.445-.321.575-.545a1.41 1.41 0 0 0 .201-.729v-.844a.652.652 0 0 1-.265.128c-.128.037-.274.07-.439.098-.164.026-.325.05-.481.073l-.392.051a3.148 3.148 0 0 0-.678.158c-.201.073-.363.18-.486.319-.119.137-.179.318-.179.546 0 .315.117.554.35.716.233.159.53.238.891.238Zm10.583 1.01c-.634 0-1.179-.143-1.637-.43a2.85 2.85 0 0 1-1.048-1.198c-.244-.508-.366-1.091-.366-1.747 0-.665.124-1.251.374-1.76.25-.511.603-.91 1.057-1.197.455-.287.99-.431 1.607-.431.497 0 .94.093 1.329.277.39.182.704.438.942.767.242.33.385.715.431 1.155h-1.24a1.489 1.489 0 0 0-.469-.792c-.242-.222-.566-.333-.972-.333-.355 0-.666.094-.933.281-.264.185-.47.449-.618.793-.148.341-.222.744-.222 1.21 0 .478.073.889.218 1.236.145.347.349.615.613.805.267.191.581.286.942.286.242 0 .46-.044.656-.132.199-.091.365-.22.499-.388.136-.168.232-.369.286-.605h1.24a2.415 2.415 0 0 1-.414 1.133c-.23.333-.538.594-.925.785-.383.19-.833.285-1.35.285Zm5.956.013c-.415 0-.79-.077-1.125-.23a1.892 1.892 0 0 1-.797-.678c-.193-.295-.29-.657-.29-1.086 0-.37.071-.674.213-.912.142-.239.334-.428.576-.567.241-.139.511-.244.809-.315.299-.071.603-.125.912-.162l.955-.111c.244-.031.422-.081.532-.149.111-.069.167-.179.167-.333v-.03c0-.372-.105-.66-.316-.865-.207-.204-.517-.306-.929-.306-.429 0-.767.095-1.014.285-.244.188-.413.396-.507.626l-1.197-.272c.142-.398.349-.719.622-.963.275-.247.592-.426.95-.537a3.697 3.697 0 0 1 1.129-.171c.262 0 .539.032.831.094.296.06.571.171.827.332.258.162.47.394.635.695.165.298.247.686.247 1.163V181h-1.244v-.895h-.051a1.818 1.818 0 0 1-.371.486 1.977 1.977 0 0 1-.635.396 2.466 2.466 0 0 1-.929.158Zm.277-1.023c.352 0 .653-.069.903-.209.253-.139.445-.321.576-.545.133-.227.2-.47.2-.729v-.844a.654.654 0 0 1-.264.128c-.128.037-.274.07-.439.098l-.482.073-.392.051a3.125 3.125 0 0 0-.677.158c-.202.073-.364.18-.486.319-.119.137-.179.318-.179.546 0 .315.116.554.349.716.233.159.53.238.891.238Zm7.407 1.01c-.633 0-1.179-.143-1.636-.43a2.844 2.844 0 0 1-1.048-1.198c-.245-.508-.367-1.091-.367-1.747 0-.665.125-1.251.375-1.76.25-.511.602-.91 1.057-1.197.454-.287.99-.431 1.606-.431.498 0 .941.093 1.33.277.389.182.703.438.942.767.241.33.385.715.43 1.155h-1.24a1.477 1.477 0 0 0-.469-.792c-.241-.222-.565-.333-.971-.333-.355 0-.666.094-.933.281a1.799 1.799 0 0 0-.618.793c-.148.341-.222.744-.222 1.21 0 .478.073.889.217 1.236.145.347.35.615.614.805.267.191.581.286.942.286.241 0 .46-.044.656-.132.199-.091.365-.22.499-.388.136-.168.231-.369.285-.605h1.24a2.403 2.403 0 0 1-.413 1.133c-.23.333-.539.594-.925.785-.383.19-.834.285-1.351.285Zm5.326-4.018V181h-1.274v-8.727h1.257v3.247h.081c.153-.352.388-.632.703-.84.315-.207.727-.311 1.236-.311.449 0 .841.093 1.176.277.338.185.599.461.784.827.187.364.281.818.281 1.364V181h-1.274v-4.01c0-.48-.124-.852-.371-1.116-.247-.267-.591-.401-1.031-.401-.301 0-.571.064-.81.192a1.391 1.391 0 0 0-.558.562c-.133.245-.2.54-.2.887Zm8.702 4.018c-.614 0-1.15-.141-1.607-.422a2.843 2.843 0 0 1-1.065-1.18c-.253-.506-.38-1.097-.38-1.773 0-.679.127-1.273.38-1.781a2.839 2.839 0 0 1 1.065-1.185c.457-.281.993-.422 1.607-.422.613 0 1.149.141 1.606.422.458.281.813.676 1.065 1.185.253.508.38 1.102.38 1.781 0 .676-.127 1.267-.38 1.773a2.83 2.83 0 0 1-1.065 1.18c-.457.281-.993.422-1.606.422Zm.004-1.07c.398 0 .727-.105.989-.315.261-.21.454-.49.579-.839a3.34 3.34 0 0 0 .192-1.155c0-.418-.064-.801-.192-1.151a1.877 1.877 0 0 0-.579-.848c-.262-.213-.591-.319-.989-.319-.401 0-.733.106-.997.319a1.902 1.902 0 0 0-.584.848c-.125.35-.188.733-.188 1.151 0 .42.063.805.188 1.155.128.349.322.629.584.839.264.21.596.315.997.315Zm4.469.938v-6.545h1.232v1.039h.068c.119-.352.329-.629.63-.831a1.81 1.81 0 0 1 1.032-.306 5.063 5.063 0 0 1 .541.029v1.219a2.3 2.3 0 0 0-.273-.047 2.587 2.587 0 0 0-.392-.03c-.301 0-.57.064-.805.192a1.425 1.425 0 0 0-.759 1.283V181h-1.274Zm4.605 0v-6.545h1.232v1.039h.068c.119-.352.33-.629.631-.831a1.809 1.809 0 0 1 1.031-.306 5.037 5.037 0 0 1 .541.029v1.219a2.312 2.312 0 0 0-.272-.047 2.597 2.597 0 0 0-.392-.03c-.302 0-.57.064-.806.192a1.425 1.425 0 0 0-.758 1.283V181h-1.275Zm7.129.132c-.614 0-1.15-.141-1.607-.422a2.843 2.843 0 0 1-1.065-1.18c-.253-.506-.38-1.097-.38-1.773 0-.679.127-1.273.38-1.781a2.839 2.839 0 0 1 1.065-1.185c.457-.281.993-.422 1.607-.422.613 0 1.149.141 1.606.422.458.281.813.676 1.066 1.185.252.508.379 1.102.379 1.781 0 .676-.127 1.267-.379 1.773a2.839 2.839 0 0 1-1.066 1.18c-.457.281-.993.422-1.606.422Zm.004-1.07c.398 0 .727-.105.989-.315.261-.21.454-.49.579-.839a3.34 3.34 0 0 0 .192-1.155c0-.418-.064-.801-.192-1.151a1.877 1.877 0 0 0-.579-.848c-.262-.213-.591-.319-.989-.319-.401 0-.733.106-.997.319a1.902 1.902 0 0 0-.584.848c-.125.35-.188.733-.188 1.151 0 .42.063.805.188 1.155.128.349.322.629.584.839.264.21.596.315.997.315Zm9.374-4.009-1.155.204a1.367 1.367 0 0 0-.23-.422 1.142 1.142 0 0 0-.418-.328 1.513 1.513 0 0 0-.66-.128c-.361 0-.662.081-.904.243-.241.159-.362.365-.362.618a.65.65 0 0 0 .243.528c.162.134.423.243.784.329l1.04.238c.602.139 1.051.354 1.346.644.296.289.444.666.444 1.129 0 .392-.114.741-.341 1.048-.225.304-.539.543-.942.716-.401.173-.865.26-1.393.26-.733 0-1.331-.156-1.794-.469-.464-.315-.748-.762-.853-1.342l1.232-.187c.076.321.234.563.473.728.238.162.549.243.933.243.418 0 .751-.087 1.001-.26.25-.176.375-.39.375-.643a.666.666 0 0 0-.23-.516c-.15-.139-.382-.244-.694-.315l-1.108-.243c-.611-.139-1.063-.361-1.355-.665-.29-.304-.435-.689-.435-1.155 0-.386.108-.724.324-1.014.216-.29.514-.516.895-.678.38-.164.817-.247 1.308-.247.707 0 1.264.154 1.67.461.407.304.675.711.806 1.223ZM26 141a3.12 3.12 0 0 0-2.887 1.929 3.127 3.127 0 0 0 2.277 4.261 3.12 3.12 0 0 0 3.735-3.065A3.125 3.125 0 0 0 26 141Zm0 5a1.875 1.875 0 1 1 0-3.75 1.875 1.875 0 0 1 0 3.75Zm0-8.75a6.882 6.882 0 0 0-6.875 6.875c0 2.453 1.134 5.053 3.281 7.52a19.88 19.88 0 0 0 3.239 2.992.63.63 0 0 0 .717 0 19.888 19.888 0 0 0 3.232-2.992c2.144-2.467 3.281-5.067 3.281-7.52A6.883 6.883 0 0 0 26 137.25Zm0 16.094c-1.291-1.016-5.625-4.746-5.625-9.219A5.622 5.622 0 0 1 26 138.5a5.625 5.625 0 0 1 5.625 5.625c0 4.471-4.334 8.203-5.625 9.219ZM44.959 151v-8.727h3.11c.677 0 1.238.116 1.684.349.449.233.784.556 1.005.967.222.41.333.883.333 1.42 0 .534-.112 1.004-.337 1.41a2.271 2.271 0 0 1-1.005.942c-.446.224-1.008.336-1.684.336H45.71v-1.133h2.237c.426 0 .773-.061 1.04-.183.27-.122.467-.3.592-.533.125-.233.188-.513.188-.839 0-.33-.064-.616-.192-.857a1.241 1.241 0 0 0-.593-.554c-.267-.131-.617-.196-1.052-.196h-1.653V151h-1.317Zm4.308-3.938L51.423 151h-1.5l-2.113-3.938h1.457Zm7.47 1.224v-3.831h1.279V151h-1.253v-1.134h-.068c-.151.35-.392.641-.725.874-.33.23-.74.345-1.231.345a2.21 2.21 0 0 1-1.117-.277 1.94 1.94 0 0 1-.758-.831c-.182-.366-.273-.819-.273-1.359v-4.163h1.274v4.009c0 .447.124.802.37 1.066.248.264.569.396.964.396.239 0 .476-.06.712-.179a1.5 1.5 0 0 0 .592-.541c.159-.242.237-.548.234-.92Zm4.895 2.859c-.414 0-.79-.077-1.124-.23a1.89 1.89 0 0 1-.797-.678c-.194-.295-.29-.657-.29-1.086 0-.37.07-.674.213-.912.142-.239.334-.428.575-.567.242-.139.511-.244.81-.315a8.07 8.07 0 0 1 .912-.162l.954-.111c.245-.031.422-.081.533-.149.11-.069.166-.179.166-.333v-.03c0-.372-.105-.66-.315-.865-.208-.204-.517-.306-.93-.306-.428 0-.766.095-1.013.285-.245.188-.414.396-.508.626l-1.197-.272c.142-.398.35-.719.622-.963.276-.247.593-.426.95-.537a3.7 3.7 0 0 1 1.13-.171c.261 0 .538.032.83.094.296.06.572.171.828.332.258.162.47.394.634.695.165.298.248.686.248 1.163V151h-1.245v-.895h-.05a1.808 1.808 0 0 1-.372.486 1.969 1.969 0 0 1-.635.396 2.465 2.465 0 0 1-.928.158Zm.277-1.023c.353 0 .654-.069.904-.209.253-.139.444-.321.575-.545.134-.227.2-.47.2-.729v-.844a.646.646 0 0 1-.264.128c-.128.037-.274.07-.439.098-.164.026-.325.05-.481.073l-.392.051a3.135 3.135 0 0 0-.678.158c-.202.073-.364.18-.486.319-.119.137-.179.318-.179.546 0 .315.117.554.35.716.233.159.53.238.89.238Zm10.277 1.006c-.529 0-1-.135-1.415-.405-.412-.273-.736-.661-.972-1.163-.233-.506-.35-1.113-.35-1.82 0-.707.119-1.312.355-1.815.238-.503.565-.888.98-1.155a2.55 2.55 0 0 1 1.41-.401c.406 0 .733.069.98.205.25.133.444.29.58.469.14.179.247.336.324.473h.076v-3.243h1.275V151h-1.245v-1.018h-.106a3.383 3.383 0 0 1-.333.477 1.854 1.854 0 0 1-.588.469c-.25.133-.573.2-.971.2Zm.281-1.087c.367 0 .676-.096.929-.29.256-.196.449-.467.58-.813.133-.347.2-.751.2-1.211 0-.454-.066-.852-.196-1.193a1.757 1.757 0 0 0-.576-.797c-.252-.19-.565-.285-.937-.285-.383 0-.703.099-.959.298-.255.199-.449.47-.58.814a3.319 3.319 0 0 0-.191 1.163c0 .438.065.831.196 1.181.13.349.324.626.58.831.258.201.576.302.954.302Zm7.537 1.091c-.613 0-1.149-.141-1.606-.422a2.84 2.84 0 0 1-1.066-1.18c-.252-.506-.379-1.097-.379-1.773 0-.679.126-1.273.38-1.781a2.835 2.835 0 0 1 1.065-1.185c.457-.281.993-.422 1.606-.422.614 0 1.15.141 1.607.422.457.281.812.676 1.065 1.185.253.508.38 1.102.38 1.781 0 .676-.127 1.267-.38 1.773a2.84 2.84 0 0 1-1.065 1.18c-.458.281-.993.422-1.607.422Zm.004-1.07c.398 0 .728-.105.99-.315.26-.21.454-.49.579-.839.127-.35.192-.735.192-1.155a3.33 3.33 0 0 0-.192-1.151 1.876 1.876 0 0 0-.58-.848c-.261-.213-.59-.319-.989-.319-.4 0-.732.106-.997.319a1.905 1.905 0 0 0-.583.848c-.125.35-.188.733-.188 1.151 0 .42.063.805.188 1.155.127.349.322.629.583.839.265.21.597.315.998.315Zm9.374-4.009-1.154.204a1.371 1.371 0 0 0-.23-.422 1.142 1.142 0 0 0-.418-.328 1.515 1.515 0 0 0-.66-.128c-.361 0-.663.081-.904.243-.242.159-.362.365-.362.618 0 .219.08.395.243.528.162.134.423.243.784.329l1.04.238c.602.139 1.05.354 1.346.644.296.289.443.666.443 1.129 0 .392-.113.741-.34 1.048-.225.304-.539.543-.942.716-.4.173-.865.26-1.394.26-.733 0-1.33-.156-1.794-.469-.463-.315-.747-.762-.852-1.342l1.231-.187c.077.321.235.563.473.728.239.162.55.243.934.243.417 0 .751-.087 1.001-.26.25-.176.375-.39.375-.643a.668.668 0 0 0-.23-.516c-.15-.139-.382-.244-.695-.315l-1.108-.243c-.61-.139-1.062-.361-1.355-.665-.29-.304-.434-.689-.434-1.155 0-.386.108-.724.324-1.014a2.12 2.12 0 0 1 .894-.678c.381-.164.817-.247 1.309-.247.707 0 1.264.154 1.67.461.406.304.675.711.805 1.223ZM94.926 151H93.53l3.14-8.727h1.522l3.14 8.727h-1.397l-2.468-7.142h-.068L94.927 151Zm.235-3.418h4.534v1.108h-4.534v-1.108Zm8.602-5.309V151h-1.274v-8.727h1.274Zm4.83 2.182v1.022h-3.699v-1.022h3.699ZM105.908 151v-7.304c0-.409.09-.749.268-1.018.179-.273.417-.476.712-.61.296-.136.617-.204.963-.204.256 0 .475.021.656.064.182.039.317.076.405.11l-.298 1.032a6.703 6.703 0 0 0-.23-.06 1.299 1.299 0 0 0-.341-.038c-.31 0-.531.076-.665.23-.13.153-.196.375-.196.664V151h-1.274Zm6.563.132c-.645 0-1.201-.138-1.667-.413a2.808 2.808 0 0 1-1.074-1.172c-.25-.506-.375-1.098-.375-1.777 0-.671.125-1.261.375-1.773a2.92 2.92 0 0 1 1.057-1.197c.455-.287.986-.431 1.594-.431.369 0 .727.061 1.074.184.346.122.658.313.933.575.276.261.493.601.652 1.018.159.415.239.919.239 1.513v.452h-5.203v-.955h3.954c0-.335-.068-.632-.204-.89a1.54 1.54 0 0 0-.576-.618 1.601 1.601 0 0 0-.86-.226c-.358 0-.671.088-.938.264a1.777 1.777 0 0 0-.614.682 1.968 1.968 0 0 0-.213.908v.745c0 .438.077.81.23 1.117.157.307.374.541.652.703.279.159.604.239.976.239.242 0 .462-.035.661-.103a1.37 1.37 0 0 0 .848-.831l1.206.218c-.097.355-.27.666-.52.933-.247.264-.558.47-.933.618a3.49 3.49 0 0 1-1.274.217Zm5.496-4.018V151h-1.275v-6.545h1.223v1.065h.081c.151-.347.387-.625.708-.835.324-.211.731-.316 1.223-.316.446 0 .836.094 1.172.282.335.184.595.46.78.826.184.367.277.82.277 1.36V151h-1.275v-4.01c0-.474-.123-.845-.37-1.112-.248-.27-.587-.405-1.019-.405-.295 0-.558.064-.788.192a1.378 1.378 0 0 0-.541.562c-.131.245-.196.54-.196.887Zm8.718 4.018c-.645 0-1.2-.138-1.666-.413a2.808 2.808 0 0 1-1.074-1.172c-.25-.506-.375-1.098-.375-1.777 0-.671.125-1.261.375-1.773.253-.511.605-.91 1.057-1.197.455-.287.986-.431 1.594-.431.369 0 .727.061 1.074.184.346.122.657.313.933.575.276.261.493.601.652 1.018.159.415.239.919.239 1.513v.452h-5.204v-.955h3.955a1.87 1.87 0 0 0-.205-.89 1.537 1.537 0 0 0-.575-.618 1.603 1.603 0 0 0-.861-.226c-.358 0-.67.088-.937.264a1.777 1.777 0 0 0-.614.682 1.968 1.968 0 0 0-.213.908v.745c0 .438.077.81.23 1.117.157.307.374.541.652.703.279.159.604.239.976.239.242 0 .462-.035.661-.103a1.37 1.37 0 0 0 .848-.831l1.206.218c-.097.355-.27.666-.52.933-.247.264-.558.47-.933.618a3.496 3.496 0 0 1-1.275.217Zm4.222-.132v-6.545h1.274V151h-1.274Zm.644-7.555a.808.808 0 0 1-.571-.222.723.723 0 0 1-.235-.537c0-.21.079-.389.235-.537a.803.803 0 0 1 .571-.226c.221 0 .41.076.567.226a.706.706 0 0 1 .238.537.716.716 0 0 1-.238.537.797.797 0 0 1-.567.222Zm2.345 7.555v-6.545h1.231v1.039h.068c.12-.352.33-.629.631-.831a1.809 1.809 0 0 1 1.031-.306 5.012 5.012 0 0 1 .541.029v1.219a2.312 2.312 0 0 0-.272-.047 2.597 2.597 0 0 0-.392-.03c-.301 0-.57.064-.806.192a1.423 1.423 0 0 0-.758 1.283V151h-1.274Zm7.128.132c-.614 0-1.149-.141-1.607-.422a2.843 2.843 0 0 1-1.065-1.18c-.253-.506-.379-1.097-.379-1.773 0-.679.126-1.273.379-1.781a2.839 2.839 0 0 1 1.065-1.185c.458-.281.993-.422 1.607-.422.613 0 1.149.141 1.606.422.458.281.813.676 1.066 1.185.253.508.379 1.102.379 1.781 0 .676-.126 1.267-.379 1.773a2.839 2.839 0 0 1-1.066 1.18c-.457.281-.993.422-1.606.422Zm.004-1.07c.398 0 .727-.105.989-.315.261-.21.454-.49.579-.839a3.34 3.34 0 0 0 .192-1.155c0-.418-.064-.801-.192-1.151a1.877 1.877 0 0 0-.579-.848c-.262-.213-.591-.319-.989-.319-.401 0-.733.106-.997.319a1.91 1.91 0 0 0-.584.848c-.125.35-.187.733-.187 1.151 0 .42.062.805.187 1.155.128.349.323.629.584.839.264.21.596.315.997.315Zm9.374-4.009-1.155.204a1.367 1.367 0 0 0-.23-.422 1.133 1.133 0 0 0-.418-.328 1.513 1.513 0 0 0-.66-.128c-.361 0-.662.081-.903.243-.242.159-.363.365-.363.618a.65.65 0 0 0 .243.528c.162.134.423.243.784.329l1.04.238c.602.139 1.051.354 1.347.644.295.289.443.666.443 1.129 0 .392-.114.741-.341 1.048-.225.304-.538.543-.942.716-.4.173-.865.26-1.393.26-.733 0-1.331-.156-1.794-.469-.463-.315-.747-.762-.853-1.342l1.232-.187c.077.321.234.563.473.728.239.162.55.243.933.243.418 0 .752-.087 1.002-.26.25-.176.375-.39.375-.643a.667.667 0 0 0-.231-.516c-.15-.139-.382-.244-.694-.315l-1.108-.243c-.611-.139-1.063-.361-1.355-.665-.29-.304-.435-.689-.435-1.155 0-.386.108-.724.324-1.014.216-.29.514-.516.895-.678a3.28 3.28 0 0 1 1.308-.247c.708 0 1.264.154 1.671.461.406.304.674.711.805 1.223Zm3.186 3.754-.063.464a7.594 7.594 0 0 1-.218 1.066 16.1 16.1 0 0 1-.311 1.035c-.105.318-.192.571-.26.759h-.903l.153-.716c.065-.299.129-.632.192-1.002.062-.369.109-.745.141-1.129l.042-.477h1.227Zm6.109-2.693V151h-1.274v-6.545h1.223v1.065h.081c.15-.347.386-.625.707-.835.324-.211.732-.316 1.223-.316.446 0 .837.094 1.172.282.335.184.595.46.78.826.185.367.277.82.277 1.36V151h-1.274v-4.01c0-.474-.124-.845-.371-1.112-.247-.27-.587-.405-1.018-.405-.296 0-.559.064-.789.192a1.384 1.384 0 0 0-.541.562c-.131.245-.196.54-.196.887Zm5.757-2.233v-.456c0-.407.083-.766.247-1.078.168-.313.405-.559.712-.738.31-.179.673-.268 1.091-.268.636 0 1.136.196 1.5.588.366.389.55.888.55 1.496v.456c0 .403-.083.76-.248 1.069a1.83 1.83 0 0 1-.703.733c-.304.176-.664.264-1.082.264-.639 0-1.144-.193-1.513-.579-.369-.386-.554-.882-.554-1.487Zm1.031-.456v.456c0 .349.087.639.26.869.174.227.432.341.776.341.335 0 .585-.114.75-.341.165-.23.247-.52.247-.869v-.456c0-.341-.084-.628-.251-.861-.165-.236-.419-.354-.763-.354-.335 0-.59.118-.763.354-.17.233-.256.52-.256.861Zm7.617 4.87v-1.065l3.771-5.957h.839v1.568h-.532l-2.698 4.27v.068h5.169v1.116h-6.549Zm4.137 1.705v-2.028l.009-.486v-6.213h1.248V151h-1.257Zm7.461-4.364c0-1.068.141-2.051.422-2.948a8.807 8.807 0 0 1 1.231-2.485h1.168a5.4 5.4 0 0 0-.588 1.036 9.75 9.75 0 0 0-.477 1.346c-.137.486-.243.99-.32 1.513a10.492 10.492 0 0 0 .085 3.592c.134.694.314 1.337.541 1.931.228.593.481 1.078.759 1.453h-1.168a8.807 8.807 0 0 1-1.231-2.485c-.281-.897-.422-1.882-.422-2.953Zm7.458-4.363V151h-1.321v-7.406h-.051l-2.088 1.363v-1.261l2.178-1.423h1.282Zm2.655 8.727 3.81-7.534v-.064h-4.406v-1.129h5.77v1.167L197.19 151h-1.377Zm6.655 0v-.955l2.954-3.059c.315-.333.575-.624.779-.874.208-.253.363-.493.465-.72.102-.227.153-.469.153-.724 0-.29-.068-.54-.204-.75a1.338 1.338 0 0 0-.559-.49 1.764 1.764 0 0 0-.796-.175c-.313 0-.586.064-.819.192a1.308 1.308 0 0 0-.537.541 1.703 1.703 0 0 0-.187.818h-1.257c0-.531.122-.996.366-1.393.245-.398.58-.706 1.006-.925a3.1 3.1 0 0 1 1.453-.333c.548 0 1.031.11 1.449.329.42.215.749.511.984.886.236.372.354.793.354 1.261 0 .324-.061.641-.183.951-.119.309-.328.654-.627 1.035-.298.378-.713.837-1.244 1.376l-1.734 1.816v.064h3.929V151h-5.745Zm7.377 0v-6.545h1.223v1.065h.081c.136-.361.359-.642.669-.844.309-.204.68-.307 1.112-.307.438 0 .804.103 1.099.307.299.205.519.486.661.844h.068c.156-.35.405-.628.746-.835.341-.211.747-.316 1.219-.316.593 0 1.078.186 1.453.559.378.372.567.933.567 1.683V151h-1.275v-4.27c0-.443-.12-.764-.362-.963a1.316 1.316 0 0 0-.865-.298c-.415 0-.737.128-.967.383-.23.253-.345.578-.345.976V151h-1.27v-4.351c0-.355-.111-.64-.333-.856-.221-.216-.51-.324-.865-.324a1.24 1.24 0 0 0-.669.192 1.408 1.408 0 0 0-.49.524 1.604 1.604 0 0 0-.183.779V151h-1.274Zm13.056-3.622c0 1.071-.141 2.055-.422 2.953a8.791 8.791 0 0 1-1.232 2.484h-1.167a5.39 5.39 0 0 0 .588-1.035c.181-.409.341-.857.477-1.342.136-.489.243-.995.319-1.518.077-.522.116-1.036.116-1.542 0-.673-.067-1.357-.201-2.05a11.411 11.411 0 0 0-.541-1.93c-.227-.594-.48-1.078-.758-1.453h1.167c.54.758.95 1.586 1.232 2.484.281.898.422 1.881.422 2.949Z" fill="#64748B"/><circle cx="315" cy="108" r="15" fill="#E2E8F0"/><path d="M321.067 113.183a.635.635 0 0 1 .183.442.632.632 0 0 1-.183.442.635.635 0 0 1-.442.183.628.628 0 0 1-.442-.183L315 108.884l-5.183 5.183a.625.625 0 0 1-.884-.884l5.183-5.183-5.183-5.183a.621.621 0 0 1-.183-.442.621.621 0 0 1 .625-.625c.166 0 .325.066.442.183l5.183 5.183 5.183-5.183a.625.625 0 0 1 .884.884L315.883 108l5.184 5.183Z" fill="#64748B"/><defs><clipPath id="a"><path fill="#fff" transform="translate(16 166)" d="M0 0h20v20H0z"/></clipPath></defs></svg>