<svg xmlns="http://www.w3.org/2000/svg" width="71" height="83" fill="none"><g clip-path="url(#a)"><path stroke="#334155" stroke-linecap="round" stroke-linejoin="round" stroke-width="3" d="M35.5 53.25v6.656"/><path fill="#334155" d="M25.516 42.156a3.328 3.328 0 1 0 0-6.656 3.328 3.328 0 0 0 0 6.656ZM45.484 42.156a3.328 3.328 0 1 0 0-6.656 3.328 3.328 0 0 0 0 6.656Z"/><path stroke="#334155" stroke-linecap="round" stroke-linejoin="round" stroke-width="3" d="M39.938 48.813 35.5 53.25l-4.438-4.438"/><path stroke="#F97316" stroke-linecap="round" stroke-linejoin="round" stroke-width="3" d="m42.156 13.313 15.476-3.856a2.219 2.219 0 0 1 2.718 1.72l4.548 24.295c.416 2.274-2.496 3.606-3.938 1.775L42.156 13.313ZM28.844 13.313 13.368 9.457a2.219 2.219 0 0 0-2.718 1.72L6.102 35.472c-.416 2.274 2.496 3.606 3.938 1.775l18.804-23.934ZM28.844 13.313h13.312M57.688 33.087v17.944a8.875 8.875 0 0 1-8.876 8.875H22.189a8.875 8.875 0 0 1-8.875-8.875V33.087"/></g><path fill="#334155" d="M15.09 79h-3.942V67.364h4.023c1.155 0 2.147.233 2.977.698a4.672 4.672 0 0 1 1.92 1.995c.447.867.67 1.905.67 3.114 0 1.212-.225 2.253-.675 3.124a4.673 4.673 0 0 1-1.938 2.006c-.84.466-1.852.699-3.034.699Zm-1.834-1.824h1.733c.81 0 1.486-.148 2.028-.443.542-.3.949-.744 1.222-1.335.272-.595.409-1.337.409-2.227 0-.89-.137-1.63-.41-2.217-.272-.59-.675-1.032-1.21-1.323-.53-.296-1.189-.444-1.977-.444h-1.795v7.99Zm13.201 1.995c-.852 0-1.59-.188-2.216-.563a3.82 3.82 0 0 1-1.454-1.574c-.341-.674-.511-1.462-.511-2.364 0-.901.17-1.69.51-2.369a3.812 3.812 0 0 1 1.455-1.58c.625-.374 1.364-.562 2.216-.562.853 0 1.591.188 2.216.563a3.775 3.775 0 0 1 1.45 1.58c.344.677.516 1.467.516 2.368 0 .902-.172 1.69-.517 2.364a3.783 3.783 0 0 1-1.449 1.574c-.625.375-1.363.563-2.216.563Zm.012-1.648c.462 0 .848-.127 1.159-.381.31-.257.541-.602.693-1.034.155-.432.233-.913.233-1.443 0-.534-.078-1.017-.233-1.45-.152-.435-.383-.781-.693-1.039-.31-.257-.697-.386-1.16-.386-.473 0-.867.129-1.181.386-.31.258-.544.604-.699 1.04a4.356 4.356 0 0 0-.227 1.449c0 .53.076 1.011.227 1.443.155.432.388.776.699 1.034.314.254.708.38 1.182.38Zm9.711 4.931c-.738 0-1.373-.1-1.903-.3-.53-.198-.956-.463-1.278-.796a2.754 2.754 0 0 1-.67-1.108l1.851-.449c.084.17.205.34.364.506.16.17.373.31.642.42.273.114.616.17 1.029.17.583 0 1.066-.141 1.448-.425.383-.28.574-.743.574-1.387v-1.653h-.102c-.106.212-.261.43-.466.653-.2.224-.468.411-.801.563-.33.151-.744.227-1.244.227-.67 0-1.279-.157-1.824-.472-.542-.318-.974-.791-1.296-1.42-.318-.633-.477-1.424-.477-2.375 0-.958.16-1.767.477-2.426.322-.663.756-1.165 1.301-1.506a3.344 3.344 0 0 1 1.824-.517c.512 0 .932.087 1.262.261.333.17.598.377.795.62.197.238.347.464.449.676h.114v-1.443h2.028v8.869c0 .746-.178 1.364-.534 1.852-.356.489-.843.855-1.46 1.097-.618.242-1.319.364-2.103.364Zm.017-5.193c.436 0 .807-.106 1.114-.318.307-.212.54-.517.699-.915.159-.397.239-.875.239-1.431 0-.55-.08-1.03-.24-1.444-.154-.413-.385-.733-.692-.96-.303-.23-.676-.346-1.12-.346-.458 0-.84.119-1.147.358-.307.238-.538.566-.694.983a3.983 3.983 0 0 0-.232 1.409c0 .534.077 1.002.232 1.403.16.398.393.708.7.932.31.22.69.33 1.141.33Zm9.983 5.194c-.738 0-1.373-.1-1.903-.302-.53-.197-.956-.462-1.278-.795a2.754 2.754 0 0 1-.67-1.108l1.851-.449c.084.17.205.34.364.506.16.17.373.31.642.42.273.114.616.17 1.029.17.583 0 1.066-.141 1.448-.425.383-.28.574-.743.574-1.387v-1.653h-.102c-.106.212-.261.43-.466.653-.2.224-.468.411-.801.563-.33.151-.744.227-1.244.227-.67 0-1.279-.157-1.824-.472-.542-.318-.974-.791-1.296-1.42-.318-.633-.477-1.424-.477-2.375 0-.958.16-1.767.477-2.426.322-.663.756-1.165 1.301-1.506a3.344 3.344 0 0 1 1.824-.517c.512 0 .932.087 1.262.261.333.17.598.377.795.62.197.238.347.464.449.676h.114v-1.443h2.028v8.869c0 .746-.178 1.364-.534 1.852-.356.489-.843.855-1.46 1.097-.618.242-1.319.364-2.103.364Zm.017-5.194c.436 0 .807-.106 1.114-.318.307-.212.54-.517.699-.915.159-.397.239-.875.239-1.431 0-.55-.08-1.03-.24-1.444-.154-.413-.385-.733-.692-.96-.303-.23-.676-.346-1.12-.346-.458 0-.84.119-1.147.358-.307.238-.538.566-.694.983a3.983 3.983 0 0 0-.232 1.409c0 .534.077 1.002.232 1.403.16.398.393.708.7.932.31.22.69.33 1.141.33Zm9.995 1.91c-.852 0-1.591-.188-2.216-.563a3.82 3.82 0 0 1-1.455-1.574c-.34-.674-.511-1.462-.511-2.364 0-.901.17-1.69.511-2.369a3.812 3.812 0 0 1 1.455-1.58c.625-.374 1.364-.562 2.216-.562.852 0 1.59.188 2.216.563a3.774 3.774 0 0 1 1.448 1.58c.345.677.518 1.467.518 2.368 0 .902-.173 1.69-.518 2.364a3.782 3.782 0 0 1-1.448 1.574c-.625.375-1.364.563-2.216.563Zm.011-1.648c.462 0 .849-.127 1.16-.381.31-.257.54-.602.692-1.034.156-.432.233-.913.233-1.443 0-.534-.077-1.017-.233-1.45-.151-.435-.382-.781-.693-1.039-.31-.257-.697-.386-1.159-.386-.473 0-.867.129-1.182.386-.31.258-.543.604-.699 1.04a4.356 4.356 0 0 0-.227 1.449c0 .53.076 1.011.227 1.443.156.432.389.776.7 1.034.314.254.708.38 1.181.38Z"/><defs><clipPath id="a"><path fill="#fff" d="M0 0h71v71H0z"/></clipPath></defs></svg>