<svg width="106" height="109" fill="none" xmlns="http://www.w3.org/2000/svg"><path fill-rule="evenodd" clip-rule="evenodd" d="M32.739 83.717c7.346-.094 12.518 7.458 10.017 15.196-1.316 4.073-4.3 6.779-9.09 7.424-7.238.975-12.414-7.91-10.21-15.041 1.006-3.255 3.3-5.81 6.382-6.999.883-.34 1.866-.28 2.9-.58Zm26.185 0c.916-.009 1.547.19 1.934.696.93 1.216 1.082 6.62.387 8.314-.976 2.376-6.522.377-7.426 4.098-.284 1.167.262 2.088.773 2.707.417.504.882.984 1.47 1.314 0-1.574.079-3.157 1.083-3.75 1.528-.903 3.772-.012 4.1 1.198.48 1.774.509 7.746-.387 8.894-1.25 1.602-4.235.737-4.719-.967-6.4-.405-13.603-4.331-12.609-11.6.297-2.172.734-3.763 1.74-5.181 2.122-2.99 5.636-4.477 9.902-5.336l3.752-.387Zm18.682 0c.915-.009 1.546.19 1.934.696.929 1.216 1.081 6.62.386 8.314-.975 2.376-6.522.377-7.426 4.098-.284 1.167.263 2.088.774 2.707.416.504.881.984 1.47 1.314 0-1.574.079-3.157 1.082-3.75 1.528-.903 3.772-.012 4.1 1.198.481 1.774.51 7.746-.386 8.894-1.251 1.602-4.236.737-4.72-.967-6.4-.405-13.602-4.331-12.608-11.6.297-2.172.734-3.763 1.74-5.181 2.122-2.99 5.636-4.477 9.902-5.336l3.752-.387Zm13.15 0c7.347-.094 12.519 7.458 10.018 15.196-1.316 4.073-4.3 6.779-9.09 7.424-7.238.975-12.414-7.91-10.21-15.041 1.006-3.255 3.299-5.81 6.381-6.999.883-.34 1.867-.28 2.901-.58Zm-84.009.04c7.006-.075 11.909.895 14.543 5.103 3.368 5.38.832 13.329-3.365 15.737-2.367 1.358-5.675 1.701-9.399 1.702-1.13 0-2.202.065-2.823-.426-1.106-.874-1.084-5.732-1.16-7.772-.14-3.716-.067-7.521.386-10.826.121-.886.008-1.952.387-2.59.32-.54.789-.694 1.431-.929Zm84.164 4.252c-.536.252-.957.472-1.276.928-.61.871-1.118 3.473.464 3.674 1.92.243 3.329-4.635.812-4.602Zm-57.979.387c-.384.18-.817.306-1.121.657-.628.726-1.523 3.498.077 3.906 2.143.546 3.388-4.44 1.044-4.563Zm61.692.812c-.524.178-.916.293-1.238.657-.62.704-1.568 3.508 0 3.944 1.925.535 3.546-3.912 1.238-4.601Zm-58.21.425c-.505.213-.89.381-1.2.774-.63.797-1.332 3.454.232 3.789 1.966.421 3.411-4.493.967-4.563Zm50.126.232c-1.986.707-1.467 4.82.387 4.64 1.916-.185 1.526-4.288-.387-4.64Zm-58.288.426c-1.602 1.07-1.166 4.953.735 4.562 1.84-.378 1.382-4.624-.735-4.562Zm68.345 3.248c-.869.327-3.789 2.466-2.089 3.673 2.051 1.456 5.385-3.788 2.089-3.673Zm-6.691.348c-.696.227-1.312.338-1.857.695-.992.651-4.39 3.532-2.36 5.066 1.092.825 2.553-.113 3.597.348.95.419 1.642 2.485 3.404 1.856 2.603-.929 1.237-8.048-2.784-7.965Zm-51.134.038-1.121.348c-.669.404-2.5 2.504-1.122 3.364 1.976 1.234 5.09-3.542 2.243-3.712Zm-24.908.31c-.581.469-.674 5.224-.194 5.993 3.051 1.01 4.456-6.092.194-5.993Zm17.985.038c-.695.228-1.311.339-1.856.696-.992.65-4.39 3.532-2.36 5.065 1.092.826 2.553-.113 3.597.349.95.419 1.642 2.485 3.404 1.856 2.603-.93 1.237-8.048-2.785-7.966ZM50.661 1.007C75.732.66 90.027 13.185 99.163 28.822c2.367 4.052 3.686 8.794 4.892 13.988.423 1.816 1.077 4.138.692 6.382-.392 2.286-.95 4.118-1.968 5.743-1.349 2.154-3.443 3.852-5.956 4.84-1.008.396-2.295.253-3.404.692l.798.797L95.28 62.7c.942 1.502 1.543 3.24 1.915 5.319.306 1.712.03 3.886-.372 5.212-1.473 4.843-6.655 10.531-13.88 8.722-3.592-.9-6.094-2.98-7.765-5.797-.307-.517-1.48-4.188-1.702-4.308-.62-.335-2.142-.106-2.978-.106H35.717c-1.141 0-2.525-.08-3.35.212-.494 1.035-.802 2.335-1.277 3.404-1.089 2.453-3.333 4.717-5.796 5.797C16.554 84.986 6.789 77.17 8.7 67.646c.694-3.457 1.985-4.908 3.723-7.18v-.053c-5.51.045-9.415-4.366-10.743-8.615-.434-1.389-.937-3.73-.532-5.691 1.09-5.271 2.483-10.285 4.414-14.679 5.802-13.2 16.433-22.208 30.154-27.55 2.989-1.162 6.326-1.72 9.786-2.392l5.158-.479Zm-25.846 46.27h1.861c-.378-1.735-1.99-5.554.16-6.754.347-.194.985-.412 1.489-.16.966.484.695 4.036 1.17 5.212 1.328 3.291 4.277 5.232 8.19 5.957 5.002.927 9.09-2.068 10.796-4.893.292-.484 1.69-3.6.957-4.414l-2.34-2.606c-1.695-2.766.011-5.315 2.34-6.116 3.886-1.338 11.016-.22 10.051 4.467-.414 2.011-1.779 2.804-2.818 4.148-.152 7.428 8.882 12.164 15.688 8.19 2.05-1.196 3.818-2.892 4.574-5.371.376-1.236-.154-4.025.957-4.574.45-.222 1.05-.062 1.383.106 2.001 1.01 1.023 4.928.319 6.595l.106.213h1.33c-.035-4.173 2.372-7.743 4.892-9.467l-.106-.106-2.127-3.032c-1.732-2.771-3.19-5.91-4.095-9.466-.406-1.591-1.113-5.207.532-5.85 2.732-1.07 2.124 2.874 2.5 4.467.96 4.082 2.65 7.417 4.732 10.37.464.66.86 1.48 1.49 1.969 4.475-1.228 6.976-.597 10.37 1.17-.192-1.231-.878-2.412-1.33-3.457-1.725-3.989-3.786-7.36-6.222-10.584-6.634-8.778-15.666-14.776-28.026-17.87-4.543-1.137-11.358-1.843-16.7-.85-2.692.5-5.29.84-7.71 1.595C23 11.232 12.76 21.86 6.786 37.226l2.233-1.118c2.858-1.125 5.455-.452 8.137.107 2.669-3.747 5.044-7.363 6.275-12.658.363-1.558-.24-5.273 2.447-4.201 1.64.654.94 4.25.531 5.85-1.307 5.113-3.75 8.923-6.381 12.658 2.247 2.471 4.726 4.74 4.786 9.413ZM35.877 22.44c4.214-.125 4.338 5.235 1.116 5.904-2.178.452-3.932-1.623-3.297-3.776.364-1.235 1.106-1.59 2.18-2.128Zm33.132 0c4.214-.125 4.338 5.235 1.117 5.904-2.178.452-3.933-1.623-3.298-3.776.364-1.235 1.106-1.59 2.18-2.128Zm-56.16 16.221-1.968.266c-1.809.509-3.449 1.606-4.467 2.925-3.503 4.541-2.136 11.394 2.074 14.04 1.22.768 2.546 1.115 4.361 1.33 1.42.169 3.467-.335 4.68.32.425.229 1.086 1.008.957 1.755-.26 1.517-2.263 2.222-3.297 3.031-1.688 1.322-2.804 3.39-3.297 5.903-1.18 6.025 4.59 12.283 10.636 10.478 2.648-.79 4.698-2.612 5.744-5 .667-1.522.588-4.455 2.18-5.052 1.011-.379 2.873-.106 4.095-.106h40.578c1.973.358 1.575 3.031 2.287 4.786 1.288 3.181 4.926 6.673 9.838 5.425 6.16-1.565 8.992-9.573 4.68-15.157-.863-1.118-5.077-3.208-4.52-4.947.714-2.23 6.343-1.136 8.509-2.02 7.066-2.888 7.325-13.174.904-16.966-5.07-2.994-10.322.836-11.913 4.627-.396.943-.959 4.91-1.436 5.371-.986.952-4.125.402-5.744.372-2.823 4.042-10.613 6.257-16.645 3.67-4.073-1.747-6.281-4.819-8.084-8.881h-.053c-.04 1.492-1.269 2.855-1.914 3.882-2.366 3.762-8.134 7.46-14.891 5.85-2.4-.571-4.396-1.564-6.063-2.872l-1.649-1.649c-1.294.007-4.588.491-5.53-.106-.948-.6-1.421-4.577-1.915-5.85l-.957-1.383c-1.638-2.44-3.496-3.578-7.18-4.042Z" fill="#fff" stroke="#fff" stroke-width=".44"/></svg>