<svg width="314" height="60" fill="none" xmlns="http://www.w3.org/2000/svg"><path fill-rule="evenodd" clip-rule="evenodd" d="M148.655 1.002c17.582-.225 29.958 17.788 23.974 36.242-3.15 9.713-10.291 16.167-21.752 17.706-17.324 2.326-29.711-18.868-24.438-35.873 2.408-7.763 7.896-13.859 15.274-16.69 2.112-.812 4.465-.672 6.942-1.385Zm62.666 0c2.191-.022 3.7.452 4.628 1.66 2.223 2.901 2.588 15.788.925 19.827-2.334 5.67-15.608.9-17.772 9.775-.679 2.784.629 4.98 1.852 6.456.996 1.204 2.109 2.347 3.516 3.135.003-3.756.19-7.53 2.593-8.945 3.656-2.153 9.026-.028 9.811 2.858 1.151 4.229 1.218 18.474-.925 21.21-2.994 3.821-10.136 1.76-11.294-2.305-15.315-.965-32.554-10.33-30.175-27.665.711-5.18 1.757-8.974 4.166-12.357 5.076-7.131 13.486-10.679 23.696-12.727 2.993-.306 5.986-.614 8.979-.922Zm44.707 0c2.191-.022 3.702.452 4.628 1.66 2.225 2.901 2.589 15.788.927 19.827-2.335 5.67-15.608.9-17.772 9.775-.68 2.784.628 4.98 1.85 6.456.998 1.204 2.111 2.347 3.518 3.135.002-3.756.189-7.53 2.591-8.945 3.658-2.153 9.027-.028 9.813 2.858 1.15 4.229 1.218 18.474-.927 21.21-2.992 3.821-10.134 1.76-11.292-2.305-15.315-.965-32.555-10.33-30.176-27.665.711-5.18 1.757-8.974 4.166-12.357 5.077-7.131 13.486-10.679 23.697-12.727 2.991-.306 5.984-.614 8.977-.922Zm31.472 0c17.582-.225 29.959 17.788 23.974 36.242-3.149 9.713-10.29 16.167-21.752 17.706-17.324 2.326-29.71-18.868-24.437-35.873 2.407-7.763 7.895-13.859 15.273-16.69 2.112-.812 4.466-.672 6.942-1.385Zm-201.048.092c16.766-.177 28.5 2.138 34.804 12.173 8.061 12.832 1.989 31.79-8.053 37.533-5.665 3.24-13.583 4.058-22.494 4.058-2.705 0-5.27.156-6.756-1.015-2.646-2.084-2.594-13.671-2.777-18.535-.332-8.863-.159-17.94.925-25.822.29-2.111.02-4.654.926-6.179.765-1.287 1.89-1.652 3.425-2.213ZM287.87 11.24c-1.285.6-2.292 1.124-3.055 2.213-1.458 2.077-2.674 8.282 1.11 8.761 4.595.58 7.968-11.054 1.945-10.974Zm-138.753.922c-.919.429-1.957.73-2.684 1.568-1.504 1.73-3.646 8.341.185 9.314 5.13 1.302 8.108-10.588 2.499-10.882Zm147.639 1.936c-1.254.426-2.194.7-2.962 1.569-1.485 1.676-3.754 8.365 0 9.405 4.605 1.276 8.485-9.332 2.962-10.974ZM157.448 15.11c-1.206.507-2.128.91-2.869 1.845-1.507 1.903-3.189 8.238.555 9.038 4.704 1.004 8.163-10.717 2.314-10.883Zm119.963.555c-4.754 1.686-3.512 11.494.925 11.065 4.585-.442 3.653-10.227-.925-11.065Zm-139.494 1.013c-3.834 2.554-2.792 11.814 1.759 10.882 4.404-.903 3.308-11.028-1.759-10.882Zm163.561 7.747c-2.079.78-9.068 5.882-4.999 8.76 4.909 3.473 12.886-9.035 4.999-8.76Zm-16.015.83c-1.664.543-3.137.808-4.442 1.66-2.374 1.551-10.506 8.421-5.647 12.08 2.614 1.968 6.109-.27 8.608.83 2.274 1.001 3.929 5.928 8.147 4.427 6.229-2.217 2.959-19.194-6.666-18.997Zm-122.369.092-2.684.83c-1.6.963-5.982 5.97-2.684 8.023 4.728 2.942 12.182-8.449 5.368-8.853Zm-59.61.738c-1.391 1.118-1.612 12.46-.463 14.294 7.301 2.407 10.662-14.53.463-14.294Zm43.042.092c-1.664.543-3.138.807-4.443 1.66-2.374 1.552-10.507 8.422-5.647 12.08 2.613 1.968 6.109-.27 8.609.83 2.273 1.001 3.928 5.927 8.145 4.427 6.229-2.216 2.96-19.194-6.664-18.997ZM36.309 1.007C53.96.792 65.456 9.925 71.297 21.462c2.706 5.348 6.21 15.347.532 19.962-1.242 1.01-2.747 1.932-4.944 1.974l.038.113c6.29 5.017 1.09 17.86-8.138 15.105a8.506 8.506 0 0 1-5.248-4.554l-.798-2.391c-.778-.545-5.423-.19-6.807-.19l-22.59.076c-.391.215-1.02 2.544-1.33 3.074-1.168 1.994-3 3.53-5.552 4.136C10.49 60.188 5.233 54.476 6.305 48.56c.272-1.502.814-2.822 1.56-3.872l1.102-1.289c-2.176.006-3.728-.987-4.943-1.974-5.624-4.565-2.13-13.816.304-19.279C8.32 13.182 16.855 5.755 26.765 2.677c2.013-.626 4.15-1.024 6.426-1.404l3.118-.266ZM17.828 34.024h1.33v-.038c-.415-1.222-1.349-4.056.19-4.82.239-.117.668-.237.99-.076.598.3.618 3.28.987 4.062 1.51 3.191 6.679 5.345 10.724 3.035 1.822-1.04 3.337-2.623 3.499-5.313.05-.835-1.95-2.102-2.206-3.491-.62-3.376 3.8-3.941 6.731-3.302 1.08.235 1.993.777 2.358 1.745 1.087 2.886-1.982 3.381-1.863 5.047.197 2.771 1.821 4.597 3.878 5.504 4.164 1.834 8.962-.077 10.382-3.302.345-.784.345-3.685.951-3.985.361-.178.815-.025 1.065.114 1.605.9.233 3.542.19 4.782l.988.038c.009-3.02 1.684-5.47 3.499-6.755-1.81-2.692-3.633-5.343-4.526-8.994-.276-1.132-.806-3.724.38-4.176 1.915-.729 1.5 1.845 1.75 2.999.8 3.701 2.523 6.431 4.45 8.994 3.15-.687 5.037-.456 7.453.835v-.038C68.286 16.917 58.58 8.083 48.782 5.03c-3.38-1.053-7.869-2.207-12.435-1.67-3.633.426-6.66.684-9.546 1.745C16.034 9.067 8.994 16.183 4.936 26.852c2.716-1.235 4.025-1.535 7.415-.722 1.937-2.585 3.678-5.299 4.488-9.032.248-1.145-.162-3.739 1.749-2.999 1.184.46.66 3.038.38 4.176-.733 2.987-2.606 7.219-4.563 8.994l1.255 1.214c1.116 1.354 2.122 3.166 2.168 5.54Zm7.91-17.723c3.015-.113 3.094 3.76.798 4.213-2.657.523-3.28-3.169-.798-4.213Zm23.691 0c3.016-.113 3.094 3.76.799 4.213-2.657.523-3.28-3.169-.799-4.213ZM9.271 27.876c-1.408.402-2.357.398-3.346 1.1-3.658 2.6-3.51 8.848.228 11.196a6.603 6.603 0 0 0 2.548.911c1.65.25 4.357-.527 4.601 1.29.146 1.084-2.658 2.524-3.27 3.302-2.742 3.481-1.406 8.354 1.863 10.247 3.476 2.012 7.154-.403 8.367-2.96.994-2.098-.08-3.758 3.232-3.758h28.369c.781 0 1.86-.114 2.358.114.957.438.82 2.312 1.217 3.302.602 1.505 1.805 2.846 3.27 3.491 2.716 1.195 5.704 0 7.073-1.708 2.135-2.662 1.89-6.49-.19-8.994-.617-.742-3.41-1.969-3.004-3.263.47-1.5 5.195-.858 6.731-1.746 4.978-2.88 4.242-11.111-1.673-12.41-3.7-.813-6.2 1.93-7.036 4.44l-.836 3.301c-.883.89-3.19-.139-4.107.266l-1.141 1.176a10.653 10.653 0 0 1-3.575 1.86c-6.513 1.948-11.377-2.411-12.967-6.755-1.559 4.426-6.266 8.702-12.816 6.755a10.6 10.6 0 0 1-3.575-1.86l-1.14-1.176c-.957-.422-3.377.643-4.26-.266l-.874-3.377c-.974-2.6-2.809-4.079-6.046-4.478Z" fill="#F55E13" stroke="#F97316" stroke-width=".44"/></svg>