<svg width="101" height="109" fill="none" xmlns="http://www.w3.org/2000/svg"><path d="M34.443 17.695c2.037 5.708-.506 11.146-4.631 12.677-4.126 1.532-9.5-.967-11.538-6.675-2.037-5.709.506-11.146 4.631-12.678 4.125-1.531 9.5.967 11.538 6.676ZM59.596 13.304c0 6.092-4.223 10.305-8.596 10.305-4.374 0-8.596-4.213-8.596-10.305C42.404 7.213 46.626 3 51 3c4.373 0 8.596 4.213 8.596 10.304ZM83.725 23.697c-2.037 5.708-7.412 8.207-11.537 6.675-4.126-1.531-6.668-6.969-4.63-12.677 2.036-5.709 7.411-8.207 11.537-6.676 4.125 1.531 6.668 6.969 4.63 12.678ZM24.909 43.609l-7.434 15.275c-1.93 3.967.937 8.592 5.35 8.625l54.836.418c4.428.034 7.366-4.577 5.465-8.576L75.64 43.609" stroke="#fff" stroke-width="6"/><path d="M75.54 44.348c0 1.61-1.056 3.744-5.178 5.635-4.113 1.887-10.694 3.19-20.087 3.19-9.393 0-15.973-1.303-20.086-3.19-4.122-1.89-5.179-4.026-5.179-5.635 0-1.61 1.056-3.745 5.179-5.636 4.113-1.887 10.693-3.19 20.086-3.19 9.393 0 15.974 1.303 20.087 3.19 4.122 1.891 5.178 4.026 5.178 5.636Z" stroke="#fff" stroke-width="6"/><path d="M48.336 44.443a1.5 1.5 0 1 0-2.914.714l2.914-.714Zm-2.914.714c.245 1.001-.037 1.673-.403 2.951-.173.6-.355 1.35-.313 2.2.044.88.32 1.768.908 2.69l2.53-1.613c-.333-.522-.426-.91-.441-1.225-.018-.344.051-.708.2-1.224.274-.957.912-2.537.433-4.493l-2.914.714ZM52.684 44.443a1.5 1.5 0 1 0-2.913.714l2.913-.714Zm-2.913.714c.245 1.001-.037 1.673-.404 2.951-.172.6-.355 1.35-.312 2.2.043.88.32 1.768.908 2.69l2.53-1.613c-.334-.522-.426-.91-.442-1.225-.017-.344.051-.708.2-1.224.274-.957.913-2.537.433-4.493l-2.913.714ZM57.033 44.443a1.5 1.5 0 1 0-2.914.714l2.914-.714Zm-2.914.714c.246 1.001-.036 1.673-.403 2.951-.172.6-.355 1.35-.313 2.2.044.88.321 1.768.908 2.69l2.53-1.613c-.333-.522-.426-.91-.441-1.225-.017-.344.051-.708.2-1.224.274-.957.913-2.537.433-4.493l-2.914.714Z" fill="#FFFCFC"/><path d="M9.888 99.384c-1.365 0-2.603-.213-3.712-.64-1.088-.427-2.005-1.035-2.752-1.824a8.57 8.57 0 0 1-1.728-2.848c-.405-1.088-.608-2.272-.608-3.552 0-1.664.33-3.115.992-4.352.683-1.237 1.61-2.208 2.784-2.912 1.195-.704 2.56-1.056 4.096-1.056.661 0 1.28.085 1.856.256.597.17 1.13.427 1.6.768.49.32.896.704 1.216 1.152h.096V75.64h4.96v14.848c0 1.792-.363 3.36-1.088 4.704a7.555 7.555 0 0 1-3.072 3.104c-1.301.725-2.848 1.088-4.64 1.088Zm0-4.288c.768 0 1.43-.181 1.984-.544a3.677 3.677 0 0 0 1.312-1.536c.299-.661.448-1.397.448-2.208 0-.81-.15-1.536-.448-2.176a3.467 3.467 0 0 0-1.312-1.504c-.555-.384-1.216-.576-1.984-.576-.747 0-1.408.192-1.984.576a3.467 3.467 0 0 0-1.312 1.504c-.299.64-.448 1.365-.448 2.176 0 .81.15 1.547.448 2.208.299.64.736 1.152 1.312 1.536.576.363 1.237.544 1.984.544Zm20.502 4.288c-1.685 0-3.2-.373-4.544-1.12a8.51 8.51 0 0 1-3.2-3.072c-.768-1.301-1.152-2.763-1.152-4.384 0-1.643.384-3.104 1.152-4.384a8.51 8.51 0 0 1 3.2-3.072c1.344-.768 2.859-1.152 4.544-1.152 1.686 0 3.19.384 4.512 1.152a8.272 8.272 0 0 1 3.168 3.072c.79 1.28 1.184 2.741 1.184 4.384 0 1.621-.394 3.083-1.184 4.384a8.272 8.272 0 0 1-3.168 3.072c-1.344.747-2.848 1.12-4.512 1.12Zm0-4.32c.79 0 1.472-.192 2.048-.576a3.911 3.911 0 0 0 1.344-1.536c.32-.64.48-1.365.48-2.176 0-.79-.16-1.504-.48-2.144a3.911 3.911 0 0 0-1.344-1.536c-.576-.384-1.258-.576-2.048-.576s-1.482.192-2.08.576a3.911 3.911 0 0 0-1.344 1.536c-.32.64-.48 1.355-.48 2.144 0 .81.16 1.536.48 2.176.32.64.768 1.152 1.344 1.536.598.384 1.29.576 2.08.576Zm14.306 10.432v-4.256h8.192c.32 0 .586-.107.8-.32a.946.946 0 0 0 .32-.736v-3.616h-.096c-.427.49-.886.907-1.376 1.248a5.058 5.058 0 0 1-1.6.768c-.576.17-1.227.256-1.952.256-1.45 0-2.752-.341-3.904-1.024-1.13-.704-2.027-1.675-2.688-2.912-.64-1.237-.96-2.645-.96-4.224 0-1.557.33-2.976.992-4.256.682-1.28 1.674-2.304 2.976-3.072 1.301-.768 2.89-1.152 4.768-1.152 1.792 0 3.338.373 4.64 1.12a7.556 7.556 0 0 1 3.072 3.104c.725 1.323 1.088 2.88 1.088 4.672v9.6c0 1.472-.438 2.635-1.312 3.488-.854.875-2.038 1.312-3.552 1.312h-9.408ZM50.2 94.68c.768 0 1.43-.17 1.984-.512a3.63 3.63 0 0 0 1.28-1.44 4.375 4.375 0 0 0 .448-1.984c0-.768-.15-1.472-.448-2.112a3.54 3.54 0 0 0-1.28-1.504c-.555-.384-1.216-.576-1.984-.576-.747 0-1.408.181-1.984.544a3.579 3.579 0 0 0-1.28 1.472c-.299.619-.448 1.312-.448 2.08 0 .747.15 1.43.448 2.048a3.628 3.628 0 0 0 1.28 1.44c.576.363 1.237.544 1.984.544Zm14.84 10.816v-4.256h8.191c.32 0 .587-.107.8-.32a.946.946 0 0 0 .32-.736v-3.616h-.096c-.426.49-.885.907-1.376 1.248a5.057 5.057 0 0 1-1.6.768c-.575.17-1.226.256-1.951.256-1.451 0-2.752-.341-3.904-1.024-1.131-.704-2.027-1.675-2.689-2.912-.64-1.237-.96-2.645-.96-4.224 0-1.557.331-2.976.992-4.256.683-1.28 1.675-2.304 2.976-3.072 1.302-.768 2.891-1.152 4.769-1.152 1.791 0 3.338.373 4.64 1.12a7.555 7.555 0 0 1 3.072 3.104c.725 1.323 1.087 2.88 1.087 4.672v9.6c0 1.472-.437 2.635-1.312 3.488-.853.875-2.037 1.312-3.551 1.312H65.04Zm5.503-10.816c.768 0 1.43-.17 1.984-.512a3.629 3.629 0 0 0 1.28-1.44 4.373 4.373 0 0 0 .448-1.984c0-.768-.149-1.472-.447-2.112a3.54 3.54 0 0 0-1.28-1.504c-.555-.384-1.217-.576-1.985-.576-.746 0-1.408.181-1.984.544a3.58 3.58 0 0 0-1.28 1.472c-.298.619-.447 1.312-.447 2.08 0 .747.149 1.43.448 2.048a3.629 3.629 0 0 0 1.28 1.44c.575.363 1.237.544 1.983.544Zm20.472 4.704c-1.685 0-3.2-.373-4.544-1.12a8.51 8.51 0 0 1-3.2-3.072c-.768-1.301-1.152-2.763-1.152-4.384 0-1.643.384-3.104 1.152-4.384a8.51 8.51 0 0 1 3.2-3.072c1.344-.768 2.859-1.152 4.544-1.152 1.686 0 3.19.384 4.512 1.152a8.272 8.272 0 0 1 3.168 3.072c.79 1.28 1.184 2.741 1.184 4.384 0 1.621-.394 3.083-1.184 4.384a8.272 8.272 0 0 1-3.168 3.072c-1.344.747-2.848 1.12-4.512 1.12Zm0-4.32c.79 0 1.472-.192 2.048-.576a3.911 3.911 0 0 0 1.344-1.536c.32-.64.48-1.365.48-2.176 0-.79-.16-1.504-.48-2.144a3.911 3.911 0 0 0-1.344-1.536c-.576-.384-1.258-.576-2.048-.576s-1.482.192-2.08.576a3.911 3.911 0 0 0-1.344 1.536c-.32.64-.48 1.355-.48 2.144 0 .81.16 1.536.48 2.176.32.64.768 1.152 1.344 1.536.598.384 1.29.576 2.08.576Z" fill="#fff"/></svg>