<svg width="416" height="434" viewBox="0 0 416 434" fill="none" xmlns="http://www.w3.org/2000/svg">
<path d="M209.124 349.839C209.124 395.496 170.145 432.508 122.062 432.508C73.9787 432.508 34.9996 395.496 34.9996 349.839C34.9996 304.182 73.9787 267.17 122.062 267.17C170.145 267.17 209.124 304.182 209.124 349.839Z" fill="#78350F" fill-opacity="0.3"/>
<path d="M383.248 350.391C383.248 396.353 344.269 433.612 296.186 433.612C248.103 433.612 209.124 396.353 209.124 350.391C209.124 304.429 248.103 267.17 296.186 267.17C344.269 267.17 383.248 304.429 383.248 350.391Z" fill="#78350F" fill-opacity="0.3"/>
<path d="M209.185 360.575L228.034 391.303H190.335L209.185 360.575Z" fill="#CC2B47"/>
<path d="M182.298 385.328H238.633V394.717C238.633 410.274 226.022 422.884 210.466 422.884C194.909 422.884 182.298 410.274 182.298 394.717V385.328Z" fill="#CC2B47"/>
<path d="M203.638 369.537C203.638 366.473 206.122 363.989 209.186 363.989C212.25 363.989 214.734 366.473 214.734 369.537V384.048C214.734 387.112 212.25 389.596 209.186 389.596C206.122 389.596 203.638 387.112 203.638 384.048V369.537Z" fill="#334155"/>
<path d="M59.7519 174.991C59.7519 136.336 91.088 105 129.743 105C168.398 105 199.734 136.336 199.734 174.991V221.937C199.734 260.592 168.398 291.928 129.743 291.928C91.088 291.928 59.7519 260.592 59.7519 221.937V174.991Z" fill="white"/>
<path d="M118.647 181.818C118.647 162.962 133.933 147.676 152.789 147.676C171.645 147.676 186.931 162.962 186.931 181.818V215.96C186.931 234.816 171.645 250.102 152.789 250.102C133.933 250.102 118.647 234.816 118.647 215.96V181.818Z" fill="#334155"/>
<path d="M153.765 175.847C153.765 168.776 159.497 163.044 166.568 163.044C173.639 163.044 179.371 168.776 179.371 175.847V186.089C179.371 193.16 173.639 198.893 166.568 198.893C159.497 198.893 153.765 193.16 153.765 186.089V175.847Z" fill="white"/>
<path d="M222.782 174.991C222.782 136.336 254.118 105 292.773 105C331.428 105 362.764 136.336 362.764 174.991V221.937C362.764 260.592 331.428 291.928 292.773 291.928C254.118 291.928 222.782 260.592 222.782 221.937V174.991Z" fill="white"/>
<path d="M281.676 181.818C281.676 162.962 296.962 147.676 315.818 147.676C334.674 147.676 349.96 162.962 349.96 181.818V215.96C349.96 234.816 334.674 250.102 315.818 250.102C296.962 250.102 281.676 234.816 281.676 215.96V181.818Z" fill="#334155"/>
<path d="M316.794 175.847C316.794 168.776 322.526 163.044 329.597 163.044C336.668 163.044 342.401 168.776 342.401 175.847V186.089C342.401 193.16 336.668 198.893 329.597 198.893C322.526 198.893 316.794 193.16 316.794 186.089V175.847Z" fill="white"/>
<path d="M209.551 353.385L228.4 384.113H190.701L209.551 353.385Z" fill="#F43F5E"/>
<path d="M182.664 378.138H238.998V387.527C238.998 403.083 226.388 415.694 210.831 415.694C195.275 415.694 182.664 403.083 182.664 387.527V378.138Z" fill="#F43F5E"/>
<path d="M204.004 362.347C204.004 359.283 206.488 356.799 209.552 356.799C212.616 356.799 215.1 359.283 215.1 362.347V376.857C215.1 379.922 212.616 382.406 209.552 382.406C206.488 382.406 204.004 379.922 204.004 376.857V362.347Z" fill="#334155"/>
<path d="M356.87 326.436C360.125 326.436 362.786 329.079 362.548 332.325C361.15 351.386 353.002 369.391 339.478 382.998C324.568 397.999 304.346 406.426 283.261 406.426C262.176 406.426 241.954 397.999 227.045 382.998C213.521 369.391 205.372 351.386 203.975 332.325C203.737 329.079 206.398 326.436 209.653 326.436C212.908 326.436 215.52 329.08 215.8 332.323C217.171 348.235 224.067 363.23 235.38 374.611C248.079 387.388 265.302 394.566 283.261 394.566C301.22 394.566 318.444 387.388 331.143 374.611C342.455 363.23 349.352 348.235 350.723 332.323C351.002 329.08 353.615 326.436 356.87 326.436Z" fill="white"/>
<path d="M66.1113 327.899C62.9362 327.899 60.3406 330.476 60.5698 333.643C61.9256 352.369 69.8758 370.059 83.0764 383.425C97.6201 398.152 117.346 406.425 137.913 406.425C158.481 406.425 178.207 398.152 192.75 383.425C205.951 370.059 213.901 352.369 215.257 333.643C215.486 330.476 212.891 327.899 209.715 327.899C206.54 327.899 203.992 330.478 203.723 333.641C202.393 349.276 195.663 364.01 184.62 375.193C172.233 387.736 155.432 394.782 137.913 394.782C120.395 394.782 103.594 387.736 91.2069 375.193C80.1634 364.01 73.4342 349.276 72.1041 333.641C71.835 330.478 69.2864 327.899 66.1113 327.899Z" fill="white"/>
<path d="M256.435 306.925C256.435 321.471 235.908 333.263 210.587 333.263C185.266 333.263 164.739 321.471 164.739 306.925C164.739 292.379 185.266 280.587 210.587 280.587C235.908 280.587 256.435 292.379 256.435 306.925Z" fill="#232D3C"/>
<path d="M256.435 304.486C256.435 317.685 236.345 328.386 211.562 328.386C186.78 328.386 166.69 317.685 166.69 304.486C166.69 291.287 186.78 280.587 211.562 280.587C236.345 280.587 256.435 291.287 256.435 304.486Z" fill="#334155"/>
<path d="M228.146 294.244C228.146 298.554 220.285 302.048 210.587 302.048C200.89 302.048 193.028 298.554 193.028 294.244C193.028 289.934 200.89 286.44 210.587 286.44C220.285 286.44 228.146 289.934 228.146 294.244Z" fill="#64748B"/>
<path d="M280.315 57.5567C266.244 48.8093 261.724 29.7299 274.72 19.4531C275.79 18.6074 276.88 17.7862 277.991 16.9902C287.257 10.3478 297.742 5.59568 308.845 3.00513C319.948 0.414588 331.453 0.0363634 342.703 1.89206C353.952 3.74775 364.726 7.80102 374.409 13.8204C384.092 19.8399 392.495 27.7075 399.137 36.9743C405.779 46.241 410.531 56.7254 413.122 67.8286C415.713 78.9319 416.091 90.4368 414.235 101.686C414.013 103.034 413.759 104.375 413.474 105.709C410.009 121.911 390.9 126.301 376.828 117.554L280.315 57.5567Z" fill="#334155"/>
<path d="M294.311 66.755C282.057 59.1372 278.138 42.4195 289.866 34.0134C296.967 28.9234 305 25.282 313.509 23.2969C322.017 21.3118 330.833 21.022 339.453 22.444C348.073 23.8659 356.329 26.9719 363.749 31.5844C371.169 36.197 377.607 42.2258 382.697 49.3267C387.787 56.4276 391.429 64.4615 393.414 72.9697C395.399 81.478 395.689 90.2938 394.267 98.9141C391.918 113.151 375.192 117.035 362.938 109.417L294.311 66.755Z" fill="#64748B"/>
<path d="M133.217 55.8114C146.605 46.0507 149.707 26.69 135.988 17.3991C134.859 16.6345 133.711 15.8959 132.545 15.1839C122.814 9.24261 112.008 5.27617 100.744 3.51105C89.48 1.74594 77.9786 2.21672 66.8965 4.89653C55.8144 7.57633 45.3687 12.4127 36.1557 19.1294C26.9427 25.8462 19.1429 34.3118 13.2016 44.0429C7.26024 53.774 3.2938 64.5801 1.52868 75.8441C-0.236429 87.1082 0.234356 98.6096 2.91416 109.692C3.23529 111.02 3.58738 112.338 3.96996 113.647C8.61906 129.55 28.0004 132.52 41.3886 122.759L133.217 55.8114Z" fill="#334155"/>
<path d="M54.5099 112.766C42.6925 121.045 25.7786 118.085 22.6522 103.999C20.7591 95.4695 20.5646 86.651 22.0796 78.0467C23.5946 69.4423 26.7896 61.2206 31.482 53.851C36.1745 46.4814 42.2725 40.1082 49.428 35.0953C56.5835 30.0824 64.6563 26.5279 73.1854 24.6349C81.7146 22.7419 90.5331 22.5473 99.1375 24.0623C107.742 25.5774 115.964 28.7723 123.333 33.4647C135.504 41.2144 132.509 58.1221 120.692 66.401L54.5099 112.766Z" fill="#64748B"/>
</svg>
