<svg width="1880" height="473" viewBox="0 0 1880 473" fill="none" xmlns="http://www.w3.org/2000/svg">
<path fill-rule="evenodd" clip-rule="evenodd" d="M742.464 295.327C790.914 145.467 690.714 -0.813008 548.374 1.01699C539.157 3.67858 530.152 4.87577 521.45 6.0326C511.222 7.39234 501.413 8.69632 492.174 12.257C432.444 35.257 388.014 84.757 368.524 147.797C325.834 285.897 426.114 458.007 566.364 439.117C659.154 426.617 716.964 374.207 742.464 295.327ZM547.333 93.7456C548.951 93.0552 550.559 92.3691 552.124 91.637C597.534 94.027 573.424 190.577 531.894 180.007C500.884 172.107 518.224 118.417 530.394 104.367C535.045 98.9897 541.261 96.337 547.333 93.7456ZM596.334 130.577C602.334 122.977 609.804 119.707 619.564 115.597C666.914 116.937 638.914 212.127 600.834 203.967C570.524 197.477 584.134 146.027 596.334 130.577ZM461.444 128.327C430.404 149.067 438.844 224.267 475.684 216.697C511.344 209.367 502.464 127.137 461.444 128.327ZM643.544 205.467C650.791 203.214 658.034 200.967 665.274 198.727C720.434 202.007 660.094 294.507 621.814 270.617C595.114 253.947 630.594 213.287 643.544 205.467ZM520.952 208.568C524.248 207.605 527.644 206.613 531.144 205.467C609.054 203.867 635.524 341.737 585.094 359.737C562.289 367.873 548.738 352.726 536.77 339.348C530.821 332.699 525.263 326.486 519.154 323.787C510.256 319.861 499.8 321.173 489.078 322.518C475.411 324.233 461.311 326.002 449.454 317.047C410.114 287.337 475.954 231.547 495.174 218.947C502.99 213.817 511.563 211.312 520.952 208.568Z" fill="white"/>
<path d="M1093.17 14.497C1085.66 4.68697 1073.44 0.836992 1055.7 1.01699C1031.48 3.52033 1007.25 6.01698 983.014 8.50698C900.354 25.137 832.274 53.947 791.174 111.857C771.674 139.327 763.204 170.147 757.454 212.207C738.194 352.987 877.754 429.027 1001.74 436.867C1011.11 469.877 1068.93 486.617 1093.17 455.587C1110.52 433.367 1109.98 317.687 1100.66 283.347C1094.3 259.907 1050.83 242.647 1021.23 260.137C1001.78 271.627 1000.26 302.277 1000.24 332.777C988.854 326.377 979.844 317.097 971.774 307.317C961.874 295.327 951.284 277.497 956.784 254.887C966.578 214.598 1004.48 208.935 1039.3 203.732C1066.77 199.628 1092.33 195.809 1100.66 175.507C1114.12 142.707 1111.17 38.057 1093.17 14.497Z" fill="white"/>
<path d="M1455.11 14.497C1447.61 4.68697 1435.38 0.836992 1417.64 1.01699C1393.41 3.52033 1369.18 6.01698 1344.96 8.50698C1262.3 25.137 1194.22 53.947 1153.12 111.857C1133.62 139.327 1125.15 170.147 1119.39 212.207C1100.13 352.987 1239.7 429.027 1363.69 436.867C1373.06 469.877 1430.88 486.617 1455.11 455.587C1472.47 433.367 1471.92 317.687 1462.61 283.347C1456.25 259.907 1412.78 242.647 1383.17 260.137C1363.72 271.627 1362.21 302.277 1362.19 332.777C1350.8 326.377 1341.79 317.097 1333.71 307.317C1323.82 295.327 1313.23 277.497 1318.73 254.887C1328.53 214.598 1366.43 208.935 1401.25 203.732C1428.72 199.628 1454.28 195.809 1462.61 175.507C1476.07 142.707 1473.12 38.057 1455.11 14.497Z" fill="white"/>
<path fill-rule="evenodd" clip-rule="evenodd" d="M1866.52 295.327C1914.97 145.467 1814.77 -0.813008 1672.43 1.01699C1663.22 3.67858 1654.21 4.87577 1645.51 6.03261C1635.28 7.39234 1625.47 8.69632 1616.23 12.257C1556.5 35.257 1512.07 84.757 1492.58 147.797C1449.89 285.897 1550.17 458.007 1690.42 439.117C1783.21 426.617 1841.02 374.207 1866.52 295.327ZM1650.7 102.117C1656.88 93.277 1665.03 89.017 1675.43 84.147C1724.19 83.497 1696.89 177.977 1659.69 173.267C1629.05 169.377 1638.9 118.987 1650.7 102.117ZM1745.41 108.022C1746.06 107.804 1746.71 107.583 1747.37 107.357C1792.08 120.697 1760.67 206.837 1723.39 196.477C1693 188.027 1711.37 133.707 1723.39 120.097C1729.21 113.508 1736.23 111.129 1745.41 108.022ZM1590.75 120.097C1552.26 133.787 1562.32 213.437 1598.24 209.957C1635.36 206.367 1627.81 126.907 1590.75 120.097ZM1785.59 191.237C1768.76 197.567 1712.18 239.007 1745.12 262.377C1784.86 290.577 1849.44 189.007 1785.59 191.237ZM1645.78 201.073C1649.06 200.111 1652.45 199.12 1655.94 197.977C1733.86 196.377 1760.33 334.247 1709.9 352.247C1687.1 360.389 1673.55 345.244 1661.58 331.865C1655.63 325.213 1650.07 318.997 1643.95 316.297C1635.06 312.371 1624.61 313.683 1613.89 315.028C1600.22 316.743 1586.12 318.512 1574.26 309.557C1534.92 279.847 1600.76 224.057 1619.98 211.457C1627.81 206.331 1636.38 203.822 1645.78 201.073Z" fill="white"/>
<path fill-rule="evenodd" clip-rule="evenodd" d="M326.564 100.617C275.524 19.127 180.534 0.326992 44.797 1.76699C44.2884 1.95313 43.7853 2.13663 43.2878 2.3181C31.6243 6.57251 23.0106 9.71447 17.07 19.737C12.0966 28.1311 11.5036 40.3274 10.9041 52.6566C10.6194 58.511 10.3333 64.3954 9.57602 69.917C0.799017 133.927 -0.60694 207.637 2.08206 279.607C2.26526 284.49 2.41939 290.207 2.5893 296.509C3.79395 341.192 5.79187 415.299 24.5641 430.127C35.3132 438.625 53.0432 438.515 72.3215 438.396C74.6168 438.381 76.934 438.367 79.2641 438.367C151.404 438.367 215.504 431.727 261.364 405.417C342.664 358.777 391.824 204.827 326.564 100.617ZM182.684 204.717C171.424 213.797 169.634 305.907 178.934 320.797C238.044 340.347 265.254 202.797 182.684 204.717Z" fill="white"/>
<path fill-rule="evenodd" clip-rule="evenodd" d="M742.464 295.327C790.914 145.467 690.714 -0.813008 548.374 1.01699C539.157 3.67858 530.152 4.87577 521.45 6.0326C511.222 7.39234 501.413 8.69632 492.174 12.257C432.444 35.257 388.014 84.757 368.524 147.797C325.834 285.897 426.114 458.007 566.364 439.117C659.154 426.617 716.964 374.207 742.464 295.327ZM547.333 93.7456C548.951 93.0552 550.559 92.3691 552.124 91.637C597.534 94.027 573.424 190.577 531.894 180.007C500.884 172.107 518.224 118.417 530.394 104.367C535.045 98.9897 541.261 96.337 547.333 93.7456ZM596.334 130.577C602.334 122.977 609.804 119.707 619.564 115.597C666.914 116.937 638.914 212.127 600.834 203.967C570.524 197.477 584.134 146.027 596.334 130.577ZM461.444 128.327C430.404 149.067 438.844 224.267 475.684 216.697C511.344 209.367 502.464 127.137 461.444 128.327ZM643.544 205.467C650.791 203.214 658.034 200.967 665.274 198.727C720.434 202.007 660.094 294.507 621.814 270.617C595.114 253.947 630.594 213.287 643.544 205.467ZM520.952 208.568C524.248 207.605 527.644 206.613 531.144 205.467C609.054 203.867 635.524 341.737 585.094 359.737C562.289 367.873 548.738 352.726 536.77 339.348C530.821 332.699 525.263 326.486 519.154 323.787C510.256 319.861 499.8 321.173 489.078 322.518C475.411 324.233 461.311 326.002 449.454 317.047C410.114 287.337 475.954 231.547 495.174 218.947C502.99 213.817 511.563 211.312 520.952 208.568Z" stroke="#F97316" stroke-width="0.44"/>
<path d="M1093.17 14.497C1085.66 4.68697 1073.44 0.836992 1055.7 1.01699C1031.48 3.52033 1007.25 6.01698 983.014 8.50698C900.354 25.137 832.274 53.947 791.174 111.857C771.674 139.327 763.204 170.147 757.454 212.207C738.194 352.987 877.754 429.027 1001.74 436.867C1011.11 469.877 1068.93 486.617 1093.17 455.587C1110.52 433.367 1109.98 317.687 1100.66 283.347C1094.3 259.907 1050.83 242.647 1021.23 260.137C1001.78 271.627 1000.26 302.277 1000.24 332.777C988.854 326.377 979.844 317.097 971.774 307.317C961.874 295.327 951.284 277.497 956.784 254.887C966.578 214.598 1004.48 208.935 1039.3 203.732C1066.77 199.628 1092.33 195.809 1100.66 175.507C1114.12 142.707 1111.17 38.057 1093.17 14.497Z" stroke="#F97316" stroke-width="0.44"/>
<path d="M1455.11 14.497C1447.61 4.68697 1435.38 0.836992 1417.64 1.01699C1393.41 3.52033 1369.18 6.01698 1344.96 8.50698C1262.3 25.137 1194.22 53.947 1153.12 111.857C1133.62 139.327 1125.15 170.147 1119.39 212.207C1100.13 352.987 1239.7 429.027 1363.69 436.867C1373.06 469.877 1430.88 486.617 1455.11 455.587C1472.47 433.367 1471.92 317.687 1462.61 283.347C1456.25 259.907 1412.78 242.647 1383.17 260.137C1363.72 271.627 1362.21 302.277 1362.19 332.777C1350.8 326.377 1341.79 317.097 1333.71 307.317C1323.82 295.327 1313.23 277.497 1318.73 254.887C1328.53 214.598 1366.43 208.935 1401.25 203.732C1428.72 199.628 1454.28 195.809 1462.61 175.507C1476.07 142.707 1473.12 38.057 1455.11 14.497Z" stroke="#F97316" stroke-width="0.44"/>
<path fill-rule="evenodd" clip-rule="evenodd" d="M1866.52 295.327C1914.97 145.467 1814.77 -0.813008 1672.43 1.01699C1663.22 3.67858 1654.21 4.87577 1645.51 6.03261C1635.28 7.39234 1625.47 8.69632 1616.23 12.257C1556.5 35.257 1512.07 84.757 1492.58 147.797C1449.89 285.897 1550.17 458.007 1690.42 439.117C1783.21 426.617 1841.02 374.207 1866.52 295.327ZM1650.7 102.117C1656.88 93.277 1665.03 89.017 1675.43 84.147C1724.19 83.497 1696.89 177.977 1659.69 173.267C1629.05 169.377 1638.9 118.987 1650.7 102.117ZM1745.41 108.022C1746.06 107.804 1746.71 107.583 1747.37 107.357C1792.08 120.697 1760.67 206.837 1723.39 196.477C1693 188.027 1711.37 133.707 1723.39 120.097C1729.21 113.508 1736.23 111.129 1745.41 108.022ZM1590.75 120.097C1552.26 133.787 1562.32 213.437 1598.24 209.957C1635.36 206.367 1627.81 126.907 1590.75 120.097ZM1785.59 191.237C1768.76 197.567 1712.18 239.007 1745.12 262.377C1784.86 290.577 1849.44 189.007 1785.59 191.237ZM1645.78 201.073C1649.06 200.111 1652.45 199.12 1655.94 197.977C1733.86 196.377 1760.33 334.247 1709.9 352.247C1687.1 360.389 1673.55 345.244 1661.58 331.865C1655.63 325.213 1650.07 318.997 1643.95 316.297C1635.06 312.371 1624.61 313.683 1613.89 315.028C1600.22 316.743 1586.12 318.512 1574.26 309.557C1534.92 279.847 1600.76 224.057 1619.98 211.457C1627.81 206.331 1636.38 203.822 1645.78 201.073Z" stroke="#F97316" stroke-width="0.44"/>
<path fill-rule="evenodd" clip-rule="evenodd" d="M326.564 100.617C275.524 19.127 180.534 0.326992 44.797 1.76699C44.2884 1.95313 43.7853 2.13663 43.2878 2.3181C31.6243 6.57251 23.0106 9.71447 17.07 19.737C12.0966 28.1311 11.5036 40.3274 10.9041 52.6566C10.6194 58.511 10.3333 64.3954 9.57602 69.917C0.799017 133.927 -0.60694 207.637 2.08206 279.607C2.26526 284.49 2.41939 290.207 2.5893 296.509C3.79395 341.192 5.79187 415.299 24.5641 430.127C35.3132 438.625 53.0432 438.515 72.3215 438.396C74.6168 438.381 76.934 438.367 79.2641 438.367C151.404 438.367 215.504 431.727 261.364 405.417C342.664 358.777 391.824 204.827 326.564 100.617ZM182.684 204.717C171.424 213.797 169.634 305.907 178.934 320.797C238.044 340.347 265.254 202.797 182.684 204.717Z" stroke="#F97316" stroke-width="0.44"/>
</svg>
