<svg xmlns="http://www.w3.org/2000/svg" width="60" height="60" fill="none"><g clip-path="url(#a)"><mask id="b" width="60" height="60" x="0" y="0" maskUnits="userSpaceOnUse" style="mask-type:luminance"><path fill="#fff" d="M60 30C60 13.431 46.569 0 30 0 13.431 0 0 13.431 0 30c0 16.569 13.431 30 30 30 16.569 0 30-13.431 30-30Z"/></mask><g mask="url(#b)"><path fill="#0891B2" d="M60 0H0v60h60V0Z"/><path fill="#F97316" d="M71.522 27.173C65.288 10.047 46.352 1.216 29.225 7.45 12.1 13.683 3.27 32.62 9.502 49.746c6.233 17.127 25.17 25.957 42.296 19.723 17.127-6.233 25.957-25.17 19.724-42.296Z"/><path stroke="#000" stroke-linecap="round" stroke-width="2.222" d="M18.333 31.667c3.334 1.666 6.667 1.666 10 0"/><path fill="#000" d="M19.167 23.333c0-.92-.56-1.666-1.25-1.666s-1.25.746-1.25 1.666c0 .92.56 1.667 1.25 1.667s1.25-.746 1.25-1.667ZM29.167 23.333c0-.92-.56-1.666-1.25-1.666s-1.25.746-1.25 1.666c0 .92.56 1.667 1.25 1.667s1.25-.746 1.25-1.667Z"/></g></g><defs><clipPath id="a"><path fill="#fff" d="M0 0h60v60H0z"/></clipPath></defs></svg>