<svg width="32" height="32" viewBox="0 0 32 32" fill="none" xmlns="http://www.w3.org/2000/svg">
<path d="M28.1363 12.805C27.5886 13.4309 26.8359 13.8413 26.0132 13.9627C25.1904 14.0841 24.3513 13.9086 23.6463 13.4675C23.454 13.3435 23.2251 13.2891 22.9976 13.3134C22.7701 13.3378 22.5579 13.4394 22.3963 13.6013L13.5988 22.3988C13.4368 22.5604 13.3352 22.7727 13.3109 23.0001C13.2866 23.2276 13.341 23.4566 13.465 23.6488C13.764 24.1279 13.9426 24.6724 13.9856 25.2355C14.0285 25.7987 13.9346 26.3639 13.7117 26.8828C13.4888 27.4018 13.1437 27.8591 12.7057 28.2158C12.2677 28.5724 11.75 28.8177 11.1966 28.9308C10.6433 29.0439 10.0707 29.0214 9.52797 28.8653C8.98519 28.7091 8.48826 28.4239 8.07963 28.034C7.67099 27.6441 7.36278 27.1611 7.1813 26.6263C6.99983 26.0914 6.9505 25.5206 7.03751 24.9625C6.47945 25.0495 5.90862 25.0002 5.37377 24.8187C4.83892 24.6373 4.35593 24.3291 3.96604 23.9204C3.57615 23.5118 3.29094 23.0149 3.13478 22.4721C2.97861 21.9293 2.95611 21.3568 3.06922 20.8034C3.18232 20.2501 3.42766 19.7323 3.78429 19.2943C4.14092 18.8564 4.59824 18.5112 5.11721 18.2883C5.63618 18.0655 6.20137 17.9715 6.76453 18.0145C7.3277 18.0574 7.8721 18.236 8.35126 18.535C8.54348 18.6591 8.77242 18.7135 8.9999 18.6891C9.22738 18.6648 9.43963 18.5632 9.60126 18.4013L18.3988 9.60379C18.5607 9.44217 18.6623 9.22991 18.6866 9.00244C18.711 8.77496 18.6566 8.54601 18.5325 8.35379C18.2335 7.87463 18.0549 7.33023 18.0119 6.76707C17.969 6.2039 18.0629 5.63871 18.2858 5.11974C18.5087 4.60077 18.8538 4.14345 19.2918 3.78682C19.7298 3.4302 20.2475 3.18486 20.8009 3.07175C21.3543 2.95865 21.9268 2.98114 22.4695 3.13731C23.0123 3.29348 23.5093 3.57868 23.9179 3.96857C24.3265 4.35846 24.6347 4.84145 24.8162 5.3763C24.9977 5.91116 25.047 6.48198 24.96 7.04004C25.6706 6.92808 26.3984 7.03777 27.0444 7.35419C27.6904 7.67061 28.2232 8.17839 28.5703 8.80842C28.9174 9.43846 29.062 10.1601 28.9843 10.8753C28.9066 11.5904 28.6105 12.2642 28.1363 12.805Z" fill="#CBD5E1"/>
<path d="M28.9587 7.61122C28.2121 6.71215 27.1435 6.14063 25.9812 6.01872C25.9075 5.34723 25.6834 4.70097 25.3258 4.12787C24.9682 3.55478 24.4861 3.06956 23.9153 2.7082C23.3446 2.34684 22.6998 2.11862 22.0288 2.04047C21.3578 1.96232 20.6778 2.03624 20.0393 2.25674C19.4008 2.47725 18.8201 2.83869 18.3403 3.31425C17.8605 3.7898 17.4939 4.36728 17.2678 5.00383C17.0417 5.64039 16.9617 6.31969 17.034 6.99135C17.1062 7.66301 17.3287 8.30979 17.685 8.88372C17.6855 8.88703 17.6855 8.89041 17.685 8.89372L8.89625 17.6887C8.89625 17.6887 8.89625 17.6887 8.88375 17.6887C8.30982 17.3324 7.66304 17.1099 6.99138 17.0377C6.31972 16.9655 5.64042 17.0454 5.00386 17.2715C4.36731 17.4977 3.78983 17.8642 3.31428 18.344C2.83872 18.8238 2.47728 19.4045 2.25677 20.043C2.03627 20.6815 1.96235 21.3615 2.0405 22.0325C2.11865 22.7035 2.34687 23.3483 2.70823 23.919C3.06959 24.4898 3.55481 24.9719 4.1279 25.3295C4.701 25.6872 5.34726 25.9112 6.01875 25.985C6.09254 26.6565 6.31656 27.3027 6.6742 27.8758C7.03184 28.4489 7.51391 28.9341 8.08467 29.2955C8.65543 29.6568 9.30022 29.8851 9.97121 29.9632C10.6422 30.0414 11.3222 29.9674 11.9607 29.7469C12.5992 29.5264 13.1799 29.165 13.6597 28.6894C14.1395 28.2139 14.506 27.6364 14.7322 26.9998C14.9583 26.3633 15.0383 25.684 14.966 25.0123C14.8938 24.3407 14.6713 23.6939 14.315 23.12C14.3148 23.1166 14.3148 23.1133 14.315 23.11L23.1087 14.315C23.1087 14.315 23.1087 14.315 23.1212 14.315C24.0294 14.887 25.112 15.1155 26.1739 14.9595C27.2357 14.8034 28.2068 14.273 28.912 13.4639C29.6171 12.6548 30.0099 11.6203 30.0194 10.5471C30.0289 9.47392 29.6545 8.43266 28.9637 7.61122H28.9587ZM27.3875 12.145C26.9965 12.5927 26.4587 12.8865 25.8706 12.9735C25.2826 13.0606 24.6827 12.9352 24.1787 12.62C23.7951 12.3765 23.3399 12.271 22.8882 12.3207C22.4365 12.3705 22.0152 12.5726 21.6937 12.8937L12.8937 21.6937C12.5734 22.0158 12.3722 22.4374 12.3234 22.8891C12.2745 23.3407 12.3809 23.7956 12.625 24.1787C12.8378 24.5211 12.9647 24.9098 12.9948 25.3118C13.025 25.7139 12.9574 26.1172 12.798 26.4874C12.6385 26.8577 12.3919 27.1839 12.0791 27.4382C11.7664 27.6926 11.3967 27.8675 11.0017 27.9481C10.6067 28.0287 10.1981 28.0126 9.81069 27.9012C9.42327 27.7897 9.06855 27.5863 8.77677 27.3081C8.48499 27.0299 8.2648 26.6853 8.13499 26.3037C8.00518 25.922 7.96958 25.5146 8.03125 25.1162C8.05365 24.9735 8.04484 24.8276 8.00544 24.6885C7.96603 24.5495 7.89697 24.4207 7.803 24.3109C7.70902 24.2011 7.59238 24.113 7.46109 24.0527C7.32981 23.9923 7.187 23.9611 7.0425 23.9612C6.99101 23.9617 6.93963 23.9658 6.88875 23.9737C6.49077 24.0349 6.0839 23.9991 5.70275 23.8692C5.3216 23.7394 4.97744 23.5195 4.69956 23.2281C4.42168 22.9367 4.2183 22.5824 4.10672 22.1956C3.99513 21.8087 3.97865 21.4006 4.05867 21.0059C4.13869 20.6113 4.31284 20.2419 4.56631 19.929C4.81979 19.6161 5.14508 19.3691 5.51452 19.209C5.88396 19.0488 6.28661 18.9803 6.68823 19.0092C7.08985 19.0381 7.47854 19.1636 7.82125 19.375C8.20494 19.6184 8.66011 19.724 9.11179 19.6742C9.56348 19.6245 9.98475 19.4224 10.3062 19.1012L19.1062 10.3012C19.4254 9.97945 19.6258 9.55882 19.6746 9.10825C19.7235 8.65768 19.6178 8.20389 19.375 7.82122C19.1622 7.47885 19.0353 7.09009 19.0052 6.68809C18.975 6.28608 19.0426 5.88276 19.202 5.5125C19.3615 5.14224 19.6081 4.81603 19.9209 4.56169C20.2336 4.30735 20.6033 4.13241 20.9983 4.0518C21.3933 3.97119 21.8019 3.9873 22.1893 4.09874C22.5767 4.21019 22.9314 4.41368 23.2232 4.69185C23.515 4.97002 23.7352 5.31462 23.865 5.69628C23.9948 6.07794 24.0304 6.48533 23.9687 6.88372C23.9444 7.03931 23.9572 7.19844 24.006 7.34817C24.0548 7.4979 24.1383 7.63398 24.2496 7.74533C24.361 7.85669 24.4971 7.94017 24.6468 7.98898C24.7965 8.03779 24.9557 8.05055 25.1112 8.02622C25.6203 7.94384 26.1424 8.02091 26.606 8.24685C27.0695 8.47279 27.4518 8.83656 27.7006 9.2883C27.9493 9.74004 28.0523 10.2576 27.9953 10.7702C27.9384 11.2827 27.7243 11.7651 27.3825 12.1512L27.3875 12.145Z" fill="#64748B"/>
</svg>
