<svg width="29" height="28" fill="none" xmlns="http://www.w3.org/2000/svg"><path fill-rule="evenodd" clip-rule="evenodd" d="M23.981 4.019A4.477 4.477 0 0 1 26.96 5.61h.005a4.5 4.5 0 0 1-5.843 6.704h-.012l-.873.873a4.989 4.989 0 0 0-1.845-.992l1.303-1.302a2 2 0 0 1 2.485-.274 2.5 2.5 0 0 0 3.209-.475l-.006.006a2.5 2.5 0 0 0-2.27-4.125 1 1 0 0 1-1.143-1.142 2.5 2.5 0 1 0-4.594.937 2 2 0 0 1-.269 2.48l-8.8 8.8a2 2 0 0 1-2.485.274 2.5 2.5 0 1 0-.932 4.599 1 1 0 0 1 1.143 1.142 2.5 2.5 0 1 0 4.593-.937 2 2 0 0 1 .269-2.485l1.302-1.303a4.99 4.99 0 0 0 .992 1.845l-.873.874v.01a4.5 4.5 0 1 1-8.296 2.865 4.5 4.5 0 1 1 2.865-8.296h.012l8.789-8.795v-.01a4.5 4.5 0 1 1 8.296-2.865Z" fill="#fff"/><path d="M16.5 11a5.5 5.5 0 1 0 5.5 5.5 5.506 5.506 0 0 0-5.5-5.5Zm0 9.778a4.277 4.277 0 1 1 0-8.555 4.277 4.277 0 0 1 0 8.555Zm2.648-4.278a.61.61 0 0 1-.611.611h-1.426v1.426a.611.611 0 1 1-1.222 0v-1.426h-1.426a.611.611 0 1 1 0-1.222h1.426v-1.426a.611.611 0 1 1 1.222 0v1.426h1.426a.611.611 0 0 1 .611.611Z" fill="#fff"/></svg>